<?xml version="1.0" standalone="no"?>
<!DOCTYPE svg PUBLIC "-//W3C//DTD SVG 1.1//EN" "http://www.w3.org/Graphics/SVG/1.1/DTD/svg11.dtd" >
<svg xmlns="http://www.w3.org/2000/svg" xmlns:xlink="http://www.w3.org/1999/xlink" version="1.1">
<metadata>
Created by FontForge 20200427 at Mon Nov  3 02:26:07 2014
 By www
Copyright (c) 2008 by Ryoichi Tsunekawa. All rights reserved.
</metadata>
<defs>
<font id="PAGSmokeW00-Regular" horiz-adv-x="677" >
  <font-face 
    font-family="PAGSmokeW00-Regular"
    font-weight="400"
    font-stretch="normal"
    units-per-em="1000"
    panose-1="4 2 9 5 2 11 2 2 5 4"
    ascent="800"
    descent="-200"
    x-height="700"
    cap-height="700"
    bbox="0 -232 1438 893"
    underline-thickness="50"
    underline-position="-175"
    unicode-range="U+0020-FB02"
  />
<missing-glyph horiz-adv-x="500" 
d="M50 701h400v-701h-400v701zM120 70h260v561h-260v-561z" />
    <glyph glyph-name="uniFB01" unicode="fi" horiz-adv-x="883" 
d="M50 0v700h446v-235h-59v-230l-127 80v-315h-260zM437 465h-127v-81zM573 0v700h260v-700h-260z" />
    <glyph glyph-name="uniFB02" unicode="fl" horiz-adv-x="1043" 
d="M50 0v700h446v-235h-59v-230l-127 80v-315h-260zM437 465h-127v-81zM573 700h260v-465h186v-235h-446v700z" />
    <glyph glyph-name=".notdef" horiz-adv-x="500" 
d="M50 701h400v-701h-400v701zM120 70h260v561h-260v-561z" />
    <glyph glyph-name="glyph1" horiz-adv-x="0" 
 />
    <glyph glyph-name="glyph1" horiz-adv-x="0" 
 />
    <glyph glyph-name="glyph2" horiz-adv-x="0" 
 />
    <glyph glyph-name="space" unicode=" " horiz-adv-x="235" 
 />
    <glyph glyph-name="exclam" unicode="!" horiz-adv-x="421" 
d="M343 120q0 -27 -10.5 -51.5t-28.5 -42.5t-42.5 -28.5t-51.5 -10.5t-51.5 10.5t-42.5 28.5t-28.5 42.5t-10.5 51.5t10.5 51.5t28.5 42.5t42.5 28.5t51.5 10.5t51.5 -10.5t42.5 -28.5t28.5 -42.5t10.5 -51.5zM181 275l-156 425h371l-156 -425h-59z" />
    <glyph glyph-name="quotedbl" unicode="&#x22;" horiz-adv-x="630" 
d="M80 363l-55 337h265l-55 -337h-155zM395 363l-55 337h265l-55 -337h-155z" />
    <glyph glyph-name="numbersign" unicode="#" horiz-adv-x="463" 
d="M70 596h66l17 104h71l-17 -104h88l17 104h71l-17 -104h63l-10 -67h-64l-16 -99h64l-10 -67h-65l-18 -111h-71l18 111h-88l-18 -111h-71l18 111h-64l10 67h65l16 99h-65zM180 430h88l16 99h-88z" />
    <glyph glyph-name="dollar" unicode="$" horiz-adv-x="548" 
d="M508 224q0 -66 -35 -119t-110 -79v-86h-175v70q-37 4 -69 14t-55 27v199q23 -18 52.5 -30.5t67.5 -12.5q35 0 48.5 15t13.5 32q0 20 -14.5 30.5t-41.5 17.5q-76 18 -113 63.5t-37 109.5q0 66 35.5 119.5t112.5 78.5v87h175v-72q35 -5 66.5 -14t54.5 -26v-199
q-23 18 -52.5 30.5t-67.5 12.5q-35 0 -48.5 -15t-13.5 -32q0 -20 14.5 -30.5t41.5 -17.5q76 -18 113 -63.5t37 -109.5z" />
    <glyph glyph-name="percent" unicode="%" horiz-adv-x="1013" 
d="M326 0l204 700h157l-204 -700h-157zM227 570q-29 0 -41.5 -22t-12.5 -52t12.5 -52t41.5 -22t42 22t13 52t-13 52t-42 22zM227 278q-46 0 -83 15t-63.5 43.5t-41 69t-14.5 90.5q0 46 14.5 86t41 69.5t63.5 46t83 16.5t83 -16.5t63.5 -46t41 -69.5t14.5 -86
q0 -50 -14.5 -90.5t-41 -69t-63.5 -43.5t-83 -15zM786 278q-29 0 -41.5 -22t-12.5 -52t12.5 -52t41.5 -22t42 22t13 52t-13 52t-42 22zM786 -14q-46 0 -83 15t-63.5 43.5t-41 69t-14.5 90.5q0 46 14.5 86t41 69.5t63.5 46t83 16.5t83 -16.5t63.5 -46t41 -69.5t14.5 -86
q0 -50 -14.5 -90.5t-41 -69t-63.5 -43.5t-83 -15z" />
    <glyph glyph-name="ampersand" unicode="&#x26;" horiz-adv-x="737" 
d="M329 510q-23 0 -37.5 -14.5t-14.5 -33.5q0 -17 14.5 -32.5t50.5 -15.5h383v-229h-112q-2 -56 -26.5 -95.5t-64.5 -65t-90.5 -37t-102.5 -11.5q-59 0 -113 11.5t-95 37t-66 66t-25 97.5q0 104 85 162q-85 58 -85 162q0 57 25 97.5t66 66t95 37t113 11.5q17 0 43.5 -2.5
t53.5 -6t49 -8t30 -8.5v-226q-28 17 -72.5 27t-103.5 10zM329 190q23 0 37.5 14.5t14.5 33.5q0 17 -16 32.5t-36 15.5t-36 -15.5t-16 -32.5q0 -19 14.5 -33.5t37.5 -14.5z" />
    <glyph glyph-name="quotesingle" unicode="'" horiz-adv-x="315" 
d="M80 363l-55 337h265l-55 -337h-155z" />
    <glyph glyph-name="parenleft" unicode="(" horiz-adv-x="447" 
d="M53 350q0 100 36.5 175.5t92.5 126.5t122.5 77.5t125.5 30.5v-50q-26 -15 -48.5 -47t-39 -79t-26 -106t-9.5 -128t9.5 -128t26 -106t39 -79t48.5 -47v-50q-59 4 -125.5 30.5t-122.5 77.5t-92.5 126t-36.5 176z" />
    <glyph glyph-name="parenright" unicode=")" horiz-adv-x="447" 
d="M394 350q0 -101 -36.5 -176t-92.5 -126t-122.5 -77.5t-125.5 -30.5v50q26 15 48.5 47t39 79t26 106t9.5 128t-9.5 128t-26 106t-39 79t-48.5 47v50q59 -4 125.5 -30.5t122.5 -77.5t92.5 -126.5t36.5 -175.5z" />
    <glyph glyph-name="asterisk" unicode="*" horiz-adv-x="500" 
d="M74 630l119 -65l-25 135h163l-25 -134l120 66l50 -155l-135 -19l100 -93l-132 -95l-59 122l-58 -123l-131 96l97 93l-135 18z" />
    <glyph glyph-name="plus" unicode="+" horiz-adv-x="660" 
d="M60 453h166v167h208v-167h166v-208h-166v-165h-208v165h-166v208z" />
    <glyph glyph-name="comma" unicode="," horiz-adv-x="326" 
d="M296 120q0 -12 -2 -23t-5 -22l-50 -174h-132l23 90q-43 11 -71.5 46.5t-28.5 82.5q0 27 10.5 51.5t28.5 42.5t42.5 28.5t51.5 10.5t51.5 -10.5t42.5 -28.5t28.5 -42.5t10.5 -51.5z" />
    <glyph glyph-name="hyphen" unicode="-" horiz-adv-x="400" 
d="M50 463h300v-228h-300v228z" />
    <glyph glyph-name="period" unicode="." horiz-adv-x="326" 
d="M296 120q0 -27 -10.5 -51.5t-28.5 -42.5t-42.5 -28.5t-51.5 -10.5t-51.5 10.5t-42.5 28.5t-28.5 42.5t-10.5 51.5t10.5 51.5t28.5 42.5t42.5 28.5t51.5 10.5t51.5 -10.5t42.5 -28.5t28.5 -42.5t10.5 -51.5z" />
    <glyph glyph-name="slash" unicode="/" horiz-adv-x="554" 
d="M45 0l204 700h260l-204 -700h-260z" />
    <glyph glyph-name="zero" unicode="0" horiz-adv-x="724" 
d="M362 473q-24 0 -41.5 -10t-28.5 -27t-16 -39t-5 -47t5 -47t16 -39t28.5 -27t41.5 -10t41.5 10t28.5 27t16 39t5 47t-5 47t-16 39t-28.5 27t-41.5 10zM362 -14q-76 0 -138 25.5t-106.5 73t-68.5 114.5t-24 151q0 78 24 144.5t68.5 115t106.5 76.5t138 28t138 -28
t106.5 -76.5t68.5 -115t24 -144.5q0 -84 -24 -151t-68.5 -114.5t-106.5 -73t-138 -25.5z" />
    <glyph glyph-name="one" unicode="1" horiz-adv-x="404" 
d="M94 0v465h-74l125 235h209v-700h-260z" />
    <glyph glyph-name="two" unicode="2" horiz-adv-x="569" 
d="M263 420q0 32 -22 54.5t-57 22.5q-49 0 -79.5 -14t-61.5 -45v224q32 26 82.5 44t122.5 18q56 0 105 -13.5t86.5 -40.5t60.5 -68.5t26 -98.5q3 -52 -9.5 -95.5t-33.5 -77.5t-46.5 -58t-49.5 -37h142v-235h-487v208q45 10 85 26t70.5 40.5t48 60t17.5 85.5z" />
    <glyph glyph-name="three" unicode="3" horiz-adv-x="546" 
d="M124 445q6 -13 30 -24.5t55 -11.5q20 0 36 15.5t16 36.5q0 19 -19.5 34t-51.5 15q-41 0 -78 -10t-65 -27v226q7 4 29.5 8.5t49.5 8t53.5 6t43.5 2.5q58 0 111.5 -11.5t93.5 -37t64 -66t24 -97.5q0 -54 -20 -94.5t-68 -67.5q48 -27 68 -67.5t20 -94.5q0 -57 -24 -97.5
t-64 -66t-93.5 -37t-111.5 -11.5q-17 0 -43.5 2.5t-53.5 6t-49.5 8t-29.5 8.5v226q28 -17 65 -27t78 -10q32 0 51.5 15t19.5 34q0 21 -16 36.5t-36 15.5q-31 0 -55 -11.5t-30 -24.5v190z" />
    <glyph glyph-name="four" unicode="4" horiz-adv-x="600" 
d="M453 700l-147 -438h60v127h205v-389h-260v101l-311 1l203 598h250z" />
    <glyph glyph-name="five" unicode="5" horiz-adv-x="592" 
d="M62 700h442v-235h-253l-1 -42q15 2 30 3t31 1q127 0 193 -62.5t62 -167.5q-2 -55 -27.5 -96.5t-67.5 -69t-98 -41.5t-120 -14q-38 0 -67.5 1.5t-53.5 4.5t-44 7t-41 9v229q28 -17 69 -27t95 -10q42 0 66 13t24 36q0 25 -28.5 39.5t-68.5 14.5q-41 0 -71.5 -4.5
t-70.5 -14.5v426z" />
    <glyph glyph-name="six" unicode="6" horiz-adv-x="649" 
d="M534 700q-67 -41 -121.5 -91t-87.5 -115q16 5 33.5 7t35.5 2q50 0 92.5 -19t73 -52.5t47.5 -79t17 -99.5q0 -62 -22 -111t-61.5 -84t-93.5 -53.5t-118 -18.5q-73 0 -129.5 24t-95.5 66t-59 99.5t-20 125.5q0 75 17.5 139t45 115t61 88t65.5 57h320zM342 222q16 0 27.5 13
t11.5 36q0 52 -46 52q-14 0 -28.5 -6.5t-24.5 -20.5q3 -35 19 -54.5t41 -19.5z" />
    <glyph glyph-name="seven" unicode="7" horiz-adv-x="607" 
d="M602 700l-240 -700h-270l166 465h-236v235h580z" />
    <glyph glyph-name="eight" unicode="8" horiz-adv-x="658" 
d="M329 -24q-59 0 -113 11.5t-95 37t-66 66t-25 97.5q0 104 85 162q-85 58 -85 162q0 57 25 97.5t66 66t95 37t113 11.5q58 0 112.5 -11.5t95.5 -37t66 -66t25 -97.5q0 -104 -85 -162q85 -58 85 -162q0 -57 -25 -97.5t-66 -66t-95.5 -37t-112.5 -11.5zM329 510
q-23 0 -37.5 -14.5t-14.5 -33.5q0 -17 16 -32.5t36 -15.5t36 15.5t16 32.5q0 19 -14.5 33.5t-37.5 14.5zM329 190q23 0 37.5 14.5t14.5 33.5q0 17 -16 32.5t-36 15.5t-36 -15.5t-16 -32.5q0 -19 14.5 -33.5t37.5 -14.5z" />
    <glyph glyph-name="nine" unicode="9" horiz-adv-x="649" 
d="M115 0q67 41 121 91t88 114q-17 -5 -34 -6.5t-35 -1.5q-50 0 -92.5 19t-73 52.5t-47.5 79t-17 99.5q0 61 22 110.5t61.5 84.5t93.5 53.5t118 18.5q73 0 129.5 -24t95.5 -66t59 -100t20 -125q0 -75 -17.5 -139t-45 -115t-61 -88t-65.5 -57h-320zM307 478q-16 0 -27.5 -13
t-11.5 -36q0 -52 46 -52q14 0 28 6t24 21q-3 35 -18.5 54.5t-40.5 19.5z" />
    <glyph glyph-name="colon" unicode=":" horiz-adv-x="326" 
d="M296 120q0 -27 -10.5 -51.5t-28.5 -42.5t-42.5 -28.5t-51.5 -10.5t-51.5 10.5t-42.5 28.5t-28.5 42.5t-10.5 51.5t10.5 51.5t28.5 42.5t42.5 28.5t51.5 10.5t51.5 -10.5t42.5 -28.5t28.5 -42.5t10.5 -51.5zM296 521q0 -27 -10.5 -51.5t-28.5 -42.5t-42.5 -28.5
t-51.5 -10.5t-51.5 10.5t-42.5 28.5t-28.5 42.5t-10.5 51.5t10.5 51.5t28.5 42.5t42.5 28.5t51.5 10.5t51.5 -10.5t42.5 -28.5t28.5 -42.5t10.5 -51.5z" />
    <glyph glyph-name="semicolon" unicode=";" horiz-adv-x="326" 
d="M296 521q0 -27 -10.5 -51.5t-28.5 -42.5t-42.5 -28.5t-51.5 -10.5t-51.5 10.5t-42.5 28.5t-28.5 42.5t-10.5 51.5t10.5 51.5t28.5 42.5t42.5 28.5t51.5 10.5t51.5 -10.5t42.5 -28.5t28.5 -42.5t10.5 -51.5zM130 -9q-43 11 -71.5 46.5t-28.5 82.5q0 27 10.5 51.5
t28.5 42.5t42.5 28.5t51.5 10.5t51.5 -10.5t42.5 -28.5t28.5 -42.5t10.5 -51.5q0 -12 -2 -23t-5 -22l-50 -174h-132z" />
    <glyph glyph-name="less" unicode="&#x3c;" horiz-adv-x="660" 
d="M357 350l215 -270h-271l-214 270l214 270h271z" />
    <glyph glyph-name="equal" unicode="=" horiz-adv-x="660" 
d="M80 303h500v-208h-500v208zM80 603h500v-208h-500v208z" />
    <glyph glyph-name="greater" unicode="&#x3e;" horiz-adv-x="660" 
d="M359 80h-271l215 270l-215 270h271l214 -270z" />
    <glyph glyph-name="question" unicode="?" horiz-adv-x="573" 
d="M210 274q-14 8 -24 23.5t-10 32.5q0 24 9 37.5t22 21t28.5 11.5t28.5 8.5t22 12.5t9 23q0 18 -19.5 28.5t-72.5 10.5q-19 0 -42.5 -4t-48 -12t-47.5 -21.5t-40 -32.5v231q22 21 49.5 34.5t57 21.5t58.5 11t55 3q88 0 148 -18.5t97 -50t52.5 -72.5t15.5 -85q0 -52 -18 -87
t-47 -56.5t-65 -31t-72 -10.5q-18 -1 -38 1.5t-41 0.5q-7 -1 -13 -5.5t-6 -13.5q0 -6 3 -12h-51zM106 120q0 27 10.5 51.5t28.5 42.5t42.5 28.5t51.5 10.5t51.5 -10.5t42.5 -28.5t28.5 -42.5t10.5 -51.5t-10.5 -51.5t-28.5 -42.5t-42.5 -28.5t-51.5 -10.5t-51.5 10.5
t-42.5 28.5t-28.5 42.5t-10.5 51.5z" />
    <glyph glyph-name="at" unicode="@" horiz-adv-x="770" 
d="M639 71q-21 -18 -44.5 -33.5t-51.5 -27t-62.5 -17.5t-77.5 -6q-81 0 -149.5 25t-119 70t-79.5 109t-31 142q0 82 27 151.5t76.5 120.5t118.5 79.5t153 28.5q67 0 129.5 -24t111 -67.5t77.5 -103.5t29 -133q0 -68 -28.5 -121.5t-81.5 -84.5zM428 387q-6 15 -22 15
q-17 0 -32 -17.5t-15 -51.5q0 -17 4.5 -32t23.5 -15q34 0 38 58zM406 554q-48 0 -87.5 -16t-67 -44t-43 -67.5t-15.5 -85.5t14.5 -83.5t41.5 -64.5t66.5 -41.5t89.5 -14.5q81 0 123 33q-38 0 -59 12.5t-36 39.5q-9 -13 -18 -21t-18.5 -12.5t-22 -6.5t-29.5 -2q-22 0 -43 11
t-37.5 30.5t-26.5 45.5t-10 56q0 31 7.5 63t23 58t40 42.5t59.5 16.5q25 0 46 -13.5t29 -43.5l7 49h116l-25 -184q-2 -19 1 -31t16 -12q14 0 22.5 8t13 20t6 27.5t1.5 30.5q0 91 -48.5 145.5t-136.5 54.5z" />
    <glyph glyph-name="A" unicode="A" horiz-adv-x="788" 
d="M496 0l-25 51l-77 -121l-77 121l-25 -51h-292l394 720l394 -720h-292zM346 111h95l-47 97z" />
    <glyph glyph-name="B" unicode="B" horiz-adv-x="662" 
d="M346 700q58 0 110 -10t91 -33.5t62 -63t23 -98.5q0 -92 -73 -145q73 -55 73 -145q0 -59 -23 -98.5t-62 -63t-91 -33.5t-110 -10h-296v700h296zM336 283q-8 0 -14.5 -1t-11.5 -6v-83q2 -2 6 -4t12 -2q23 0 37.5 14.5t14.5 33.5q0 17 -12 32.5t-32 15.5zM310 424
q5 -5 11.5 -6t14.5 -1q20 0 32 15.5t12 32.5q0 19 -14.5 33.5t-37.5 14.5q-8 0 -12 -2t-6 -4v-83z" />
    <glyph glyph-name="C" unicode="C" horiz-adv-x="480" 
d="M272 350q0 -24 9 -45t25 -36.5t36.5 -25t44.5 -9.5h51v-238q-12 -2 -29 -2.5t-30 -0.5q-74 0 -139 28t-113 76.5t-76 113.5t-28 139t28 139t76 113.5t113 76.5t139 28q13 0 30 -0.5t29 -2.5v-238h-51q-24 0 -44.5 -9.5t-36.5 -25t-25 -36.5t-9 -45z" />
    <glyph glyph-name="D" unicode="D" horiz-adv-x="676" 
d="M50 0v700h233q85 0 153.5 -26.5t116.5 -73t74 -110.5t26 -140t-26 -140t-74 -110.5t-116.5 -73t-153.5 -26.5h-233zM404 350q0 49 -20.5 82t-50.5 33q-8 0 -13.5 -4t-9.5 -9v-205q9 -12 23 -12q30 0 50.5 33t20.5 82z" />
    <glyph glyph-name="E" unicode="E" horiz-adv-x="543" 
d="M50 700h446v-235h-59v-230h59v-235h-446v700zM437 235h-127v80zM437 465h-127v-81z" />
    <glyph glyph-name="F" unicode="F" horiz-adv-x="523" 
d="M50 0v700h446v-235h-59v-230l-127 80v-315h-260zM437 465h-127v-81z" />
    <glyph glyph-name="G" unicode="G" horiz-adv-x="721" 
d="M23 350q0 74 28 139t76 113.5t113 76.5t139 28q13 0 30 -0.5t29 -2.5v-238h-51q-24 0 -44.5 -9.5t-36.5 -25t-25 -36.5t-9 -45q0 -23 7.5 -45.5t22 -39.5t36 -27.5t50.5 -10.5q23 0 41 7v149h265v-386l-90 57q-40 -32 -92.5 -50t-124.5 -18q-80 0 -147 27.5t-115 76
t-75 115.5t-27 145z" />
    <glyph glyph-name="H" unicode="H" horiz-adv-x="742" 
d="M310 700v-236h122v236h260v-700h-260v235h-122v-235h-260v700h260z" />
    <glyph glyph-name="I" unicode="I" horiz-adv-x="360" 
d="M50 0v700h260v-700h-260z" />
    <glyph glyph-name="J" unicode="J" horiz-adv-x="455" 
d="M24 233q12 -2 24 -3t24 -1q51 0 68.5 28t17.5 82v361h260v-418q0 -140 -77.5 -216t-215.5 -76q-29 0 -55.5 1.5t-45.5 8.5v233v0z" />
    <glyph glyph-name="K" unicode="K" horiz-adv-x="720" 
d="M50 0v700h260v-213l95 213h274l-196 -365l227 -335h-317l-83 149v-149h-260z" />
    <glyph glyph-name="L" unicode="L" horiz-adv-x="520" 
d="M50 700h260v-465h186v-235h-446v700z" />
    <glyph glyph-name="M" unicode="M" horiz-adv-x="771" 
d="M721 722v-722h-260v326l-76 -42l-75 42v-326h-260v722l335 -175z" />
    <glyph glyph-name="N" unicode="N" horiz-adv-x="728" 
d="M418 0v296l-108 46v-342h-260v720l368 -152v132h260v-700h-260z" />
    <glyph glyph-name="O" unicode="O" horiz-adv-x="776" 
d="M388 473q-29 0 -50.5 -10.5t-36 -28t-22 -39.5t-7.5 -45t7.5 -45.5t22 -39.5t36 -27.5t50.5 -10.5q28 0 50 10.5t36.5 27.5t22 39.5t7.5 45.5t-7.5 45t-22 39.5t-36.5 28t-50 10.5zM388 -14q-80 0 -147 27.5t-115.5 76t-75.5 115.5t-27 145q0 73 27 139t75.5 116
t115.5 79.5t147 29.5t147 -29.5t115.5 -79.5t75.5 -116t27 -139q0 -78 -27 -145t-75.5 -115.5t-115.5 -76t-147 -27.5z" />
    <glyph glyph-name="P" unicode="P" horiz-adv-x="654" 
d="M50 0v700h213q75 0 142.5 -12.5t118 -45t80.5 -89.5t30 -146q0 -48 -17.5 -97t-56.5 -89t-100.5 -65.5t-149.5 -28.5v-127h-260zM328 482q-8 0 -12 -3t-6 -5v-105q5 -6 11.5 -7.5t14.5 -1.5q20 0 34 19t14 42q0 24 -16.5 42.5t-39.5 18.5z" />
    <glyph glyph-name="Q" unicode="Q" horiz-adv-x="776" 
d="M503 -116h-230l66 105q-71 8 -129 38t-99.5 78t-64.5 110.5t-23 134.5q0 73 27 139t75.5 116t115.5 79.5t147 29.5t147 -29.5t115.5 -79.5t75.5 -116t27 -139q0 -72 -23 -134.5t-65 -110.5t-100.5 -78t-128.5 -38zM388 473q-29 0 -50.5 -10.5t-36 -28t-22 -39.5t-7.5 -45
t7.5 -45.5t22 -39.5t36 -27.5t50.5 -10.5q28 0 50 10.5t36.5 27.5t22 39.5t7.5 45.5t-7.5 45t-22 39.5t-36.5 28t-50 10.5z" />
    <glyph glyph-name="R" unicode="R" 
d="M50 0v700h213q75 0 142.5 -12.5t118 -45t80.5 -89.5t30 -146q0 -23 -4.5 -49.5t-15 -53t-28.5 -53t-45 -49.5l121 -202h-276l-76 152v-152h-260zM328 482q-8 0 -12 -3t-6 -5v-105q5 -6 11.5 -7.5t14.5 -1.5q20 0 34 19t14 42q0 24 -16.5 42.5t-39.5 18.5z" />
    <glyph glyph-name="S" unicode="S" horiz-adv-x="546" 
d="M503 468q-36 0 -57 -20.5t-33.5 -54t-20.5 -76.5t-19 -87.5t-29 -87.5t-50 -76.5t-81.5 -54t-124.5 -20.5q-15 0 -37.5 2t-38.5 7v235q16 -3 30 -3q36 0 57 20.5t33.5 54t20.5 76.5t19.5 87.5t29.5 87.5t50 76.5t81.5 54t124.5 20.5q14 0 37 -2t39 -7v-235q-17 3 -31 3z
" />
    <glyph glyph-name="T" unicode="T" horiz-adv-x="586" 
d="M163 0v465h-139v235h538v-235h-139v-465h-260z" />
    <glyph glyph-name="U" unicode="U" 
d="M37 700h260v-423q0 -17 10.5 -31.5t30.5 -14.5t31 14.5t11 31.5v423h260v-426q0 -61 -21 -113t-60 -90t-95 -59.5t-126 -21.5t-126 21.5t-95 59.5t-59.5 90t-20.5 113v426z" />
    <glyph glyph-name="V" unicode="V" horiz-adv-x="788" 
d="M788 700l-394 -720l-394 720h297l97 -188l97 188h297z" />
    <glyph glyph-name="W" unicode="W" horiz-adv-x="950" 
d="M475 700l96 -164l81 164h296l-342 -720l-131 307l-131 -307l-342 720h296l81 -164z" />
    <glyph glyph-name="X" unicode="X" horiz-adv-x="742" 
d="M371 500l61 200h277l-134 -350l134 -350h-277l-61 200l-61 -200h-277l134 350l-134 350h277z" />
    <glyph glyph-name="Y" unicode="Y" horiz-adv-x="765" 
d="M252 0v239l-252 461h286l96 -190l97 190h286l-253 -463v-237h-260z" />
    <glyph glyph-name="Z" unicode="Z" horiz-adv-x="647" 
d="M606 235v-235h-580l218 465h-203v235h580l-219 -465h204z" />
    <glyph glyph-name="bracketleft" unicode="[" horiz-adv-x="431" 
d="M70 745h331v-60h-91v-670h91v-60h-331v790z" />
    <glyph glyph-name="backslash" unicode="\" horiz-adv-x="554" 
d="M249 0l-204 700h260l204 -700h-260z" />
    <glyph glyph-name="bracketright" unicode="]" horiz-adv-x="431" 
d="M361 -45h-331v60h91v670h-91v60h331v-790z" />
    <glyph glyph-name="asciicircum" unicode="^" horiz-adv-x="660" 
d="M649 220h-251l-68 117l-68 -117h-251l319 500z" />
    <glyph glyph-name="underscore" unicode="_" horiz-adv-x="660" 
d="M70 208h520v-208h-520v208z" />
    <glyph glyph-name="grave" unicode="`" horiz-adv-x="270" 
d="M179 888l41 -138h-82l-88 138h129z" />
    <glyph glyph-name="a" unicode="a" horiz-adv-x="788" 
d="M496 0l-25 51l-77 -121l-77 121l-25 -51h-292l394 720l394 -720h-292zM346 111h95l-47 97z" />
    <glyph glyph-name="b" unicode="b" horiz-adv-x="662" 
d="M346 700q58 0 110 -10t91 -33.5t62 -63t23 -98.5q0 -92 -73 -145q73 -55 73 -145q0 -59 -23 -98.5t-62 -63t-91 -33.5t-110 -10h-296v700h296zM336 283q-8 0 -14.5 -1t-11.5 -6v-83q2 -2 6 -4t12 -2q23 0 37.5 14.5t14.5 33.5q0 17 -12 32.5t-32 15.5zM310 424
q5 -5 11.5 -6t14.5 -1q20 0 32 15.5t12 32.5q0 19 -14.5 33.5t-37.5 14.5q-8 0 -12 -2t-6 -4v-83z" />
    <glyph glyph-name="c" unicode="c" horiz-adv-x="480" 
d="M272 350q0 -24 9 -45t25 -36.5t36.5 -25t44.5 -9.5h51v-238q-12 -2 -29 -2.5t-30 -0.5q-74 0 -139 28t-113 76.5t-76 113.5t-28 139t28 139t76 113.5t113 76.5t139 28q13 0 30 -0.5t29 -2.5v-238h-51q-24 0 -44.5 -9.5t-36.5 -25t-25 -36.5t-9 -45z" />
    <glyph glyph-name="d" unicode="d" horiz-adv-x="676" 
d="M50 0v700h233q85 0 153.5 -26.5t116.5 -73t74 -110.5t26 -140t-26 -140t-74 -110.5t-116.5 -73t-153.5 -26.5h-233zM404 350q0 49 -20.5 82t-50.5 33q-8 0 -13.5 -4t-9.5 -9v-205q9 -12 23 -12q30 0 50.5 33t20.5 82z" />
    <glyph glyph-name="e" unicode="e" horiz-adv-x="543" 
d="M50 700h446v-235h-59v-230h59v-235h-446v700zM437 235h-127v80zM437 465h-127v-81z" />
    <glyph glyph-name="f" unicode="f" horiz-adv-x="523" 
d="M50 0v700h446v-235h-59v-230l-127 80v-315h-260zM437 465h-127v-81z" />
    <glyph glyph-name="g" unicode="g" horiz-adv-x="721" 
d="M23 350q0 74 28 139t76 113.5t113 76.5t139 28q13 0 30 -0.5t29 -2.5v-238h-51q-24 0 -44.5 -9.5t-36.5 -25t-25 -36.5t-9 -45q0 -23 7.5 -45.5t22 -39.5t36 -27.5t50.5 -10.5q23 0 41 7v149h265v-386l-90 57q-40 -32 -92.5 -50t-124.5 -18q-80 0 -147 27.5t-115 76
t-75 115.5t-27 145z" />
    <glyph glyph-name="h" unicode="h" horiz-adv-x="742" 
d="M310 700v-236h122v236h260v-700h-260v235h-122v-235h-260v700h260z" />
    <glyph glyph-name="i" unicode="i" horiz-adv-x="360" 
d="M50 0v700h260v-700h-260z" />
    <glyph glyph-name="j" unicode="j" horiz-adv-x="455" 
d="M24 233q12 -2 24 -3t24 -1q51 0 68.5 28t17.5 82v361h260v-418q0 -140 -77.5 -216t-215.5 -76q-29 0 -55.5 1.5t-45.5 8.5v233v0z" />
    <glyph glyph-name="k" unicode="k" horiz-adv-x="720" 
d="M50 0v700h260v-213l95 213h274l-196 -365l227 -335h-317l-83 149v-149h-260z" />
    <glyph glyph-name="l" unicode="l" horiz-adv-x="520" 
d="M50 700h260v-465h186v-235h-446v700z" />
    <glyph glyph-name="m" unicode="m" horiz-adv-x="771" 
d="M721 722v-722h-260v326l-76 -42l-75 42v-326h-260v722l335 -175z" />
    <glyph glyph-name="n" unicode="n" horiz-adv-x="728" 
d="M418 0v296l-108 46v-342h-260v720l368 -152v132h260v-700h-260z" />
    <glyph glyph-name="o" unicode="o" horiz-adv-x="776" 
d="M388 473q-29 0 -50.5 -10.5t-36 -28t-22 -39.5t-7.5 -45t7.5 -45.5t22 -39.5t36 -27.5t50.5 -10.5q28 0 50 10.5t36.5 27.5t22 39.5t7.5 45.5t-7.5 45t-22 39.5t-36.5 28t-50 10.5zM388 -14q-80 0 -147 27.5t-115.5 76t-75.5 115.5t-27 145q0 73 27 139t75.5 116
t115.5 79.5t147 29.5t147 -29.5t115.5 -79.5t75.5 -116t27 -139q0 -78 -27 -145t-75.5 -115.5t-115.5 -76t-147 -27.5z" />
    <glyph glyph-name="p" unicode="p" horiz-adv-x="654" 
d="M50 0v700h213q75 0 142.5 -12.5t118 -45t80.5 -89.5t30 -146q0 -48 -17.5 -97t-56.5 -89t-100.5 -65.5t-149.5 -28.5v-127h-260zM328 482q-8 0 -12 -3t-6 -5v-105q5 -6 11.5 -7.5t14.5 -1.5q20 0 34 19t14 42q0 24 -16.5 42.5t-39.5 18.5z" />
    <glyph glyph-name="q" unicode="q" horiz-adv-x="776" 
d="M503 -116h-230l66 105q-71 8 -129 38t-99.5 78t-64.5 110.5t-23 134.5q0 73 27 139t75.5 116t115.5 79.5t147 29.5t147 -29.5t115.5 -79.5t75.5 -116t27 -139q0 -72 -23 -134.5t-65 -110.5t-100.5 -78t-128.5 -38zM388 473q-29 0 -50.5 -10.5t-36 -28t-22 -39.5t-7.5 -45
t7.5 -45.5t22 -39.5t36 -27.5t50.5 -10.5q28 0 50 10.5t36.5 27.5t22 39.5t7.5 45.5t-7.5 45t-22 39.5t-36.5 28t-50 10.5z" />
    <glyph glyph-name="r" unicode="r" 
d="M50 0v700h213q75 0 142.5 -12.5t118 -45t80.5 -89.5t30 -146q0 -23 -4.5 -49.5t-15 -53t-28.5 -53t-45 -49.5l121 -202h-276l-76 152v-152h-260zM328 482q-8 0 -12 -3t-6 -5v-105q5 -6 11.5 -7.5t14.5 -1.5q20 0 34 19t14 42q0 24 -16.5 42.5t-39.5 18.5z" />
    <glyph glyph-name="s" unicode="s" horiz-adv-x="546" 
d="M503 468q-36 0 -57 -20.5t-33.5 -54t-20.5 -76.5t-19 -87.5t-29 -87.5t-50 -76.5t-81.5 -54t-124.5 -20.5q-15 0 -37.5 2t-38.5 7v235q16 -3 30 -3q36 0 57 20.5t33.5 54t20.5 76.5t19.5 87.5t29.5 87.5t50 76.5t81.5 54t124.5 20.5q14 0 37 -2t39 -7v-235q-17 3 -31 3z
" />
    <glyph glyph-name="t" unicode="t" horiz-adv-x="586" 
d="M163 0v465h-139v235h538v-235h-139v-465h-260z" />
    <glyph glyph-name="u" unicode="u" 
d="M37 700h260v-423q0 -17 10.5 -31.5t30.5 -14.5t31 14.5t11 31.5v423h260v-426q0 -61 -21 -113t-60 -90t-95 -59.5t-126 -21.5t-126 21.5t-95 59.5t-59.5 90t-20.5 113v426z" />
    <glyph glyph-name="v" unicode="v" horiz-adv-x="788" 
d="M788 700l-394 -720l-394 720h297l97 -188l97 188h297z" />
    <glyph glyph-name="w" unicode="w" horiz-adv-x="950" 
d="M475 700l96 -164l81 164h296l-342 -720l-131 307l-131 -307l-342 720h296l81 -164z" />
    <glyph glyph-name="x" unicode="x" horiz-adv-x="742" 
d="M371 500l61 200h277l-134 -350l134 -350h-277l-61 200l-61 -200h-277l134 350l-134 350h277z" />
    <glyph glyph-name="y" unicode="y" horiz-adv-x="765" 
d="M252 0v239l-252 461h286l96 -190l97 190h286l-253 -463v-237h-260z" />
    <glyph glyph-name="z" unicode="z" horiz-adv-x="647" 
d="M606 235v-235h-580l218 465h-203v235h580l-219 -465h204z" />
    <glyph glyph-name="braceleft" unicode="{" horiz-adv-x="435" 
d="M60 379q20 0 28 10t8 28q0 32 -9.5 75t-9.5 99q0 85 54 130.5t174 45.5q13 0 28.5 -0.5t29.5 -2t25 -3t17 -2.5v-49h-11q-43 0 -61 -25.5t-18 -77.5q0 -29 4.5 -68t4.5 -78q0 -38 -12 -68.5t-49 -42.5q19 -6 30.5 -17t18.5 -25.5t9.5 -32t2.5 -36.5q0 -39 -4.5 -78.5
t-4.5 -68.5q0 -51 18 -77t61 -26q2 0 5 0.5t6 0.5v-49q-6 -2 -17 -3t-25 -2.5t-29.5 -2t-28.5 -0.5q-120 0 -174 45t-54 131q0 56 9.5 99t9.5 75q0 18 -8 28t-28 10v58v0z" />
    <glyph glyph-name="bar" unicode="|" horiz-adv-x="660" 
d="M434 755v-810h-208v810h208z" />
    <glyph glyph-name="braceright" unicode="}" horiz-adv-x="435" 
d="M375 321q-20 0 -28 -10t-8 -28q0 -32 9.5 -75t9.5 -99q0 -86 -54 -131t-174 -45q-14 0 -29 0.5t-29 2t-25 2.5t-17 3v49q3 0 5.5 -0.5t5.5 -0.5q43 0 61 26t18 77q0 29 -5 68.5t-5 78.5q0 37 12 68t50 43q-19 6 -31 17t-19 25.5t-9.5 32t-2.5 36.5q0 39 5 78t5 68
q0 52 -18 77.5t-61 25.5h-11v49q6 1 17 2.5t25 3t29 2t29 0.5q120 0 174 -45.5t54 -130.5q0 -56 -9.5 -99t-9.5 -75q0 -18 8 -28t28 -10v-58z" />
    <glyph glyph-name="asciitilde" unicode="~" horiz-adv-x="660" 
d="M590 274q-33 -31 -72.5 -45t-81.5 -14q-35 0 -65.5 11t-58 24.5t-54.5 25t-55 11.5q-38 0 -68.5 -13.5t-64.5 -49.5v202q33 31 72.5 45t81.5 14q35 0 65 -11.5t58 -25t54.5 -24.5t55.5 -11q38 0 68.5 13.5t64.5 49.5v-202z" />
    <glyph glyph-name="exclamdown" unicode="&#xa1;" horiz-adv-x="421" 
d="M78 580q0 27 10.5 51.5t28.5 42.5t42.5 28.5t51.5 10.5t51.5 -10.5t42.5 -28.5t28.5 -42.5t10.5 -51.5t-10.5 -51.5t-28.5 -42.5t-42.5 -28.5t-51.5 -10.5t-51.5 10.5t-42.5 28.5t-28.5 42.5t-10.5 51.5zM240 425l156 -425h-371l156 425h59z" />
    <glyph glyph-name="cent" unicode="&#xa2;" horiz-adv-x="533" 
d="M23 350q0 52 14.5 99t40.5 86.5t62 70.5t79 51v103h175v-70q13 -1 27.5 -2.5t28 -4.5t24.5 -6.5t17 -8.5l-5 -233q-26 8 -52 12.5t-54 2.5q-46 -2 -77 -27t-31 -73t31 -73.5t77 -27.5q28 -2 54 2.5t52 12.5l5 -233q-6 -5 -17 -9t-24.5 -7t-28 -4.5t-27.5 -2.5v-68h-175
v101q-43 20 -79 51t-62 71t-40.5 87t-14.5 100z" />
    <glyph glyph-name="sterling" unicode="&#xa3;" horiz-adv-x="585" 
d="M42 188h7q44 3 44 47v74h-51v39h51v66q0 148 65 220.5t213 72.5q14 0 34 -1.5t42.5 -4t44.5 -7t40 -10.5l-5 -233q-26 7 -53.5 11t-56.5 4q-31 0 -48 -24t-17 -59v-35h174v-39h-174v-74h186v-235h-496v188z" />
    <glyph glyph-name="currency" unicode="&#xa4;" horiz-adv-x="734" 
d="M367 651q60 0 111.5 -18.5t90.5 -52.5l47 47l28 -28l-48 -48q35 -39 54 -90t19 -111q0 -57 -20 -108t-55 -92l50 -49l-28 -28l-50 49q-39 -35 -89 -54t-110 -19t-110.5 19.5t-89.5 53.5l-49 -49l-28 28l49 49q-35 41 -54.5 92t-19.5 108q0 60 18.5 111t53.5 90l-47 48
l28 28l47 -48q39 34 90 53t112 19zM367 248q24 0 42 9t30 23t18 32.5t6 37.5t-6 37.5t-18 32.5t-30 23t-42 9t-42 -9t-30 -23t-18 -32.5t-6 -37.5t6 -37.5t18 -32.5t30 -23t42 -9z" />
    <glyph glyph-name="yen" unicode="&#xa5;" horiz-adv-x="765" 
d="M139 235h114l-253 465h286l96 -190l97 190h286l-254 -465h114v-39h-113v-46h113v-39h-113v-111h-260v111h-113v39h113v46h-113v39z" />
    <glyph glyph-name="brokenbar" unicode="&#xa6;" horiz-adv-x="660" 
d="M434 755v-366h-208v366h208zM434 311v-366h-208v366h208z" />
    <glyph glyph-name="section" unicode="&#xa7;" horiz-adv-x="639" 
d="M49 536q0 37 18 69.5t55 56.5t94.5 38t135.5 14q65 0 125 -13t98 -35l-4 -175q-14 7 -37 18t-50.5 20.5t-58.5 16.5t-60 7q-43 0 -56 -8.5t-13 -22.5q0 -8 6 -12.5t20 -8.5t38 -9.5t60 -15.5q97 -26 136 -70.5t39 -106.5q0 -29 -16 -55t-44 -43q29 -23 41.5 -50.5
t12.5 -60.5q0 -37 -18.5 -69.5t-56 -56.5t-94.5 -38t-133 -14q-65 0 -125.5 12.5t-98.5 35.5l4 176q13 -8 36 -19t50.5 -21t59 -16.5t61.5 -6.5q41 0 54 8t13 22q0 8 -6 12.5t-20.5 9t-38.5 9.5t-61 15q-48 13 -80.5 30.5t-53 40t-29 49.5t-8.5 58q0 29 15 55t42 43
q-29 23 -40.5 50t-11.5 61zM420 274q0 25 -41 44t-134 44l-26 7q-4 -8 -4 -18q0 -13 10 -23t31.5 -20t55 -20.5t80.5 -23.5l25 -7q3 7 3 17z" />
    <glyph glyph-name="dieresis" unicode="&#xa8;" horiz-adv-x="389" 
d="M50 819q0 26 17.5 43.5t43.5 17.5t43.5 -17.5t17.5 -43.5t-17.5 -43.5t-43.5 -17.5t-43.5 17.5t-17.5 43.5zM217 819q0 26 17.5 43.5t43.5 17.5t43.5 -17.5t17.5 -43.5t-17.5 -43.5t-43.5 -17.5t-43.5 17.5t-17.5 43.5z" />
    <glyph glyph-name="copyright" unicode="&#xa9;" horiz-adv-x="702" 
d="M324 350q0 -24 17 -41t41 -17h25v-119q-6 -1 -14.5 -1.5t-14.5 -0.5q-37 0 -69.5 14t-56.5 38.5t-38 57t-14 69.5t14 69.5t38 56.5t56.5 38t69.5 14h14.5t14.5 -1v-119h-25q-24 0 -41 -17.5t-17 -40.5zM90 350q0 -54 20.5 -101.5t56 -83t83 -56t101.5 -20.5t101.5 20.5
t83 56t56 83t20.5 101.5t-20.5 101.5t-56 83t-83 56t-101.5 20.5t-101.5 -20.5t-83 -56t-56 -83t-20.5 -101.5zM20 350q0 69 26 129t71 105t105 71t129 26t129 -26t105 -71t71 -105t26 -129t-26 -129t-71 -105t-105 -71t-129 -26t-129 26t-105 71t-71 105t-26 129z" />
    <glyph glyph-name="ordfeminine" unicode="&#xaa;" horiz-adv-x="483" 
d="M303 280l-16 31l-46 -73l-46 72l-15 -30h-175l236 432l237 -432h-175zM213 347h57l-29 58z" />
    <glyph glyph-name="guillemotleft" unicode="&#xab;" horiz-adv-x="806" 
d="M432 0h-228l-189 350l189 350h228l-165 -350zM791 0h-228l-189 350l189 350h228l-165 -350z" />
    <glyph glyph-name="logicalnot" unicode="&#xac;" horiz-adv-x="660" 
d="M70 453h515v-373h-208v165h-307v208z" />
    <glyph glyph-name="registered" unicode="&#xae;" horiz-adv-x="702" 
d="M20 350q0 69 26 129t71 105t105 71t129 26t129 -26t105 -71t71 -105t26 -129t-26 -129t-71 -105t-105 -71t-129 -26t-129 26t-105 71t-71 105t-26 129zM90 350q0 -54 20.5 -101.5t56 -83t83 -56t101.5 -20.5t101.5 20.5t83 56t56 83t20.5 101.5t-20.5 101.5t-56 83
t-83 56t-101.5 20.5t-101.5 -20.5t-83 -56t-56 -83t-20.5 -101.5zM211 174v350h106q37 0 71 -6t59.5 -22.5t40.5 -45t15 -73.5q0 -23 -9.5 -51t-37.5 -52l61 -100h-138l-38 76v-76h-130zM350 415q-5 0 -6.5 -1.5l-2.5 -2.5v-53q3 -4 13 -4t17 9.5t7 20.5q0 12 -8.5 21.5
t-19.5 9.5z" />
    <glyph glyph-name="macron" unicode="&#xaf;" horiz-adv-x="312" 
d="M50 858h212v-78h-212v78z" />
    <glyph glyph-name="degree" unicode="&#xb0;" horiz-adv-x="440" 
d="M220 579q-28 0 -42 -18t-14 -41t14 -41t42 -18t42 18t14 41t-14 41t-42 18zM220 325q-43 0 -78.5 14.5t-61.5 41t-40.5 62t-14.5 77.5q0 39 14.5 74t40.5 61.5t61.5 42.5t78.5 16t78.5 -16t61.5 -42.5t40.5 -61.5t14.5 -74q0 -42 -14.5 -77.5t-40.5 -62t-61.5 -41
t-78.5 -14.5z" />
    <glyph glyph-name="plusminus" unicode="&#xb1;" horiz-adv-x="660" 
d="M80 253h146v90h-146v208h146v113h208v-113h146v-208h-146v-90h146v-208h-500v208z" />
    <glyph glyph-name="uni00B2" unicode="&#xb2;" horiz-adv-x="378" 
d="M177 532q0 19 -13.5 32.5t-34.5 13.5q-29 0 -47.5 -8.5t-36.5 -26.5v134q20 16 50 26.5t73 10.5q33 0 62.5 -8t52 -24.5t36.5 -41t16 -58.5q1 -32 -6.5 -58t-20 -46.5t-28 -35t-29.5 -21.5h85v-141h-292v125q27 6 51 15.5t42.5 24.5t29 36t10.5 51z" />
    <glyph glyph-name="uni00B3" unicode="&#xb3;" horiz-adv-x="363" 
d="M95 547q4 -8 18.5 -15t32.5 -7q12 0 22 9.5t10 22.5q0 11 -12 20t-31 9q-24 0 -46.5 -5.5t-39.5 -16.5v135q4 3 17.5 5.5t30 4.5t32.5 3.5t26 1.5q35 0 67 -7t56 -22t38.5 -39.5t14.5 -58.5q0 -32 -12 -56t-41 -41q29 -17 41 -41t12 -56q0 -35 -14.5 -59t-38.5 -39
t-56 -22t-67 -7q-10 0 -26 1.5t-32.5 3.5t-30 4.5t-17.5 5.5v135q17 -11 39.5 -16.5t46.5 -5.5q19 0 31 9t12 20q0 13 -10 22.5t-22 9.5q-18 0 -32.5 -7t-18.5 -15v114z" />
    <glyph glyph-name="acute" unicode="&#xb4;" horiz-adv-x="270" 
d="M220 888l-88 -138h-82l41 138h129z" />
    <glyph glyph-name="mu" unicode="&#xb5;" horiz-adv-x="1307" 
d="M113 0l-58 700h57l7 -86q45 10 74.5 9t55 -7t52 -12.5t65.5 -6.5q42 0 69.5 6.5t53.5 14t57 14t81 6.5q51 0 96 -16t85 -44l10 -64q-37 33 -86 48.5t-103 15.5q-45 0 -74 -6.5t-54.5 -14t-54 -13.5t-72.5 -6q-41 0 -69.5 6t-54.5 12t-55 8t-71 -7l4 -51q43 9 73 7
t56.5 -7.5t53.5 -12t65 -6.5q42 0 70.5 6t56 13.5t59.5 14t81 6.5q52 0 96.5 -15.5t86.5 -41.5l9 -65q-37 34 -84.5 49.5t-99.5 15.5q-46 0 -77 -6.5t-58 -15t-57 -15t-74 -6.5q-41 0 -70 6.5t-55.5 12.5t-56 8t-69.5 -6l4 -52q42 8 73 5.5t58 -8.5t55 -12t66 -6
q42 0 71 6.5t57 14.5t61 14.5t83 6.5q51 0 98 -15.5t84 -40.5l11 -69q-36 34 -84.5 50t-102.5 16q-47 0 -78.5 -6.5t-59.5 -14.5t-58.5 -14.5t-75.5 -6.5q-39 0 -68.5 6t-57.5 12t-57.5 8.5t-69.5 -5.5l3 -49q42 7 73 4.5t59.5 -8t57 -11.5t66.5 -6q42 0 72 6t59.5 13.5
t64 13.5t84.5 6q51 0 96.5 -15.5t83.5 -41.5l12 -65q-38 33 -86.5 48t-101.5 15q-47 0 -79 -6.5t-61.5 -14t-61.5 -13.5t-77 -6q-38 0 -68.5 6t-59 11.5t-59 8t-69.5 -4.5l19 -228h-57zM282 100h10v-30h-10v30zM282 110v-10h-20v-30h-10v50h10v-10h20zM322 70v10h10v-10h-10
zM322 110h10v-10h-10v-20h-10v20h-10v10h10v10h10v-10zM362 70v10h10v-10h-10zM362 110h10v-10h-10v-20h-10v20h-10v10h10v10h10v-10zM392 80h20v19h-20v-19zM412 100h10v-20h-10v-10h-20v-20h-10v60h30v-10zM432 90h10v-10h-10v10zM432 110h10v-10h-10v10zM452 80h10v-10
h-10v10zM472 100h10v-10h-10v10zM462 90h10v-10h-10v10zM502 120v-10h-10v10h10zM482 110h10v-10h-10v10zM492 80h10v-10h-10v10zM512 100h10v-10h-10v10zM502 90h10v-10h-10v10zM542 120v-10h-10v10h10zM522 110h10v-10h-10v10zM562 80h20v19h-20v-19zM582 100h10v-20h-10
v-10h-20v-20h-10v60h30v-10zM612 70h-10v40h10v-10h10v-10h-10v-20zM632 100h-10v10h10v-10zM652 80h-10v20h10v10h20v-10h10v-20h-10v-10h-20v10zM672 80v19h-20v-19h20zM702 80h20v19h-20v-19zM722 100h10v-20h-10v-10h-20v-20h-10v60h30v-10zM772 100v-10h-30v10h30z
M792 100v10h30v-40h-30v10h-10v20h10zM792 80h20v19h-20v-19zM862 100v-10h-30v10h30zM882 60h20v10h-20v10h-10v20h10v10h30v-50h-10v-10h-20v10zM882 80h20v19h-20v-19zM932 100v10h30v-40h-30v10h-10v20h10zM932 80h20v19h-20v-19zM982 70h-10v40h30v-10h-20v-30z
M1002 100h10v-30h-10v30zM1032 100v10h20v10h10v-50h-30v10h-10v20h10zM1032 80h20v19h-20v-19zM1082 100v10h30v-40h-30v10h-10v20h10zM1082 80h20v19h-20v-19zM1122 80h10v-10h-10v10zM1152 70v10h20v-10h-20zM1152 80h-10v20h10v-20zM1152 100v10h20v-10h-20zM1192 80
h-10v20h10v10h20v-10h10v-20h-10v-10h-20v10zM1212 80v19h-20v-19h20zM1272 100h10v-30h-10v30zM1272 110v-10h-10v-30h-10v30h-10v-30h-10v40h40z" />
    <glyph glyph-name="mu" unicode="&#x3bc;" horiz-adv-x="1307" 
d="M113 0l-58 700h57l7 -86q45 10 74.5 9t55 -7t52 -12.5t65.5 -6.5q42 0 69.5 6.5t53.5 14t57 14t81 6.5q51 0 96 -16t85 -44l10 -64q-37 33 -86 48.5t-103 15.5q-45 0 -74 -6.5t-54.5 -14t-54 -13.5t-72.5 -6q-41 0 -69.5 6t-54.5 12t-55 8t-71 -7l4 -51q43 9 73 7
t56.5 -7.5t53.5 -12t65 -6.5q42 0 70.5 6t56 13.5t59.5 14t81 6.5q52 0 96.5 -15.5t86.5 -41.5l9 -65q-37 34 -84.5 49.5t-99.5 15.5q-46 0 -77 -6.5t-58 -15t-57 -15t-74 -6.5q-41 0 -70 6.5t-55.5 12.5t-56 8t-69.5 -6l4 -52q42 8 73 5.5t58 -8.5t55 -12t66 -6
q42 0 71 6.5t57 14.5t61 14.5t83 6.5q51 0 98 -15.5t84 -40.5l11 -69q-36 34 -84.5 50t-102.5 16q-47 0 -78.5 -6.5t-59.5 -14.5t-58.5 -14.5t-75.5 -6.5q-39 0 -68.5 6t-57.5 12t-57.5 8.5t-69.5 -5.5l3 -49q42 7 73 4.5t59.5 -8t57 -11.5t66.5 -6q42 0 72 6t59.5 13.5
t64 13.5t84.5 6q51 0 96.5 -15.5t83.5 -41.5l12 -65q-38 33 -86.5 48t-101.5 15q-47 0 -79 -6.5t-61.5 -14t-61.5 -13.5t-77 -6q-38 0 -68.5 6t-59 11.5t-59 8t-69.5 -4.5l19 -228h-57zM282 100h10v-30h-10v30zM282 110v-10h-20v-30h-10v50h10v-10h20zM322 70v10h10v-10h-10
zM322 110h10v-10h-10v-20h-10v20h-10v10h10v10h10v-10zM362 70v10h10v-10h-10zM362 110h10v-10h-10v-20h-10v20h-10v10h10v10h10v-10zM392 80h20v19h-20v-19zM412 100h10v-20h-10v-10h-20v-20h-10v60h30v-10zM432 90h10v-10h-10v10zM432 110h10v-10h-10v10zM452 80h10v-10
h-10v10zM472 100h10v-10h-10v10zM462 90h10v-10h-10v10zM502 120v-10h-10v10h10zM482 110h10v-10h-10v10zM492 80h10v-10h-10v10zM512 100h10v-10h-10v10zM502 90h10v-10h-10v10zM542 120v-10h-10v10h10zM522 110h10v-10h-10v10zM562 80h20v19h-20v-19zM582 100h10v-20h-10
v-10h-20v-20h-10v60h30v-10zM612 70h-10v40h10v-10h10v-10h-10v-20zM632 100h-10v10h10v-10zM652 80h-10v20h10v10h20v-10h10v-20h-10v-10h-20v10zM672 80v19h-20v-19h20zM702 80h20v19h-20v-19zM722 100h10v-20h-10v-10h-20v-20h-10v60h30v-10zM772 100v-10h-30v10h30z
M792 100v10h30v-40h-30v10h-10v20h10zM792 80h20v19h-20v-19zM862 100v-10h-30v10h30zM882 60h20v10h-20v10h-10v20h10v10h30v-50h-10v-10h-20v10zM882 80h20v19h-20v-19zM932 100v10h30v-40h-30v10h-10v20h10zM932 80h20v19h-20v-19zM982 70h-10v40h30v-10h-20v-30z
M1002 100h10v-30h-10v30zM1032 100v10h20v10h10v-50h-30v10h-10v20h10zM1032 80h20v19h-20v-19zM1082 100v10h30v-40h-30v10h-10v20h10zM1082 80h20v19h-20v-19zM1122 80h10v-10h-10v10zM1152 70v10h20v-10h-20zM1152 80h-10v20h10v-20zM1152 100v10h20v-10h-20zM1192 80
h-10v20h10v10h20v-10h10v-20h-10v-10h-20v10zM1212 80v19h-20v-19h20zM1272 100h10v-30h-10v30zM1272 110v-10h-10v-30h-10v30h-10v-30h-10v40h40z" />
    <glyph glyph-name="paragraph" unicode="&#xb6;" horiz-adv-x="639" 
d="M589 -74h-106v715h-53v-715h-106v199h-17q-60 0 -112 22.5t-91 61.5t-61.5 91t-22.5 112t22.5 112.5t61.5 91.5t91 61.5t112 22.5h282v-774z" />
    <glyph glyph-name="periodcentered" unicode="&#xb7;" horiz-adv-x="326" 
d="M296 350q0 -27 -10.5 -51.5t-28.5 -42.5t-42.5 -28.5t-51.5 -10.5t-51.5 10.5t-42.5 28.5t-28.5 42.5t-10.5 51.5t10.5 51.5t28.5 42.5t42.5 28.5t51.5 10.5t51.5 -10.5t42.5 -28.5t28.5 -42.5t10.5 -51.5z" />
    <glyph glyph-name="cedilla" unicode="&#xb8;" horiz-adv-x="274" 
d="M55 -109q15 -10 35 -10q11 0 19.5 3.5t8.5 11.5q0 11 -11.5 14t-32.5 3l24 87h59l-16 -52q5 1 10 1.5t10 0.5q29 0 45.5 -15t16.5 -39q0 -33 -26.5 -53t-63.5 -20q-29 0 -45.5 3t-32.5 10v55z" />
    <glyph glyph-name="uni00B9" unicode="&#xb9;" horiz-adv-x="274" 
d="M66 280v279h-44l75 141h125v-420h-156z" />
    <glyph glyph-name="ordmasculine" unicode="&#xba;" horiz-adv-x="484" 
d="M242 564q-35 0 -52.5 -23t-17.5 -51t17.5 -51t52.5 -23t52.5 23t17.5 51t-17.5 51t-52.5 23zM242 272q-48 0 -88 16.5t-69.5 45.5t-45.5 69t-16 87q0 43 16 82.5t45.5 69.5t69.5 48t88 18t88 -18t69.5 -48t45.5 -69.5t16 -82.5q0 -47 -16 -87t-45.5 -69t-69.5 -45.5
t-88 -16.5z" />
    <glyph glyph-name="guillemotright" unicode="&#xbb;" horiz-adv-x="806" 
d="M539 350l-165 350h228l189 -350l-189 -350h-228zM180 350l-165 350h228l189 -350l-189 -350h-228z" />
    <glyph glyph-name="onequarter" unicode="&#xbc;" horiz-adv-x="767" 
d="M154 0l204 700h157l-204 -700h-157zM669 420l-88 -263h36v76h123v-233h-156v61h-187l122 359h150zM66 280v279h-44l75 141h125v-420h-156z" />
    <glyph glyph-name="onehalf" unicode="&#xbd;" horiz-adv-x="758" 
d="M154 0l204 700h157l-204 -700h-157zM66 280v279h-44l75 141h125v-420h-156zM565 252q0 19 -13.5 32.5t-34.5 13.5q-29 0 -47.5 -8.5t-36.5 -26.5v134q20 16 50 26.5t73 10.5q33 0 62.5 -8t52 -24.5t36.5 -41t16 -58.5q1 -32 -6.5 -58t-20 -46.5t-28 -35t-29.5 -21.5h85
v-141h-292v125q27 6 51 15.5t42.5 24.5t29 36t10.5 51z" />
    <glyph glyph-name="threequarters" unicode="&#xbe;" horiz-adv-x="833" 
d="M220 0l204 700h157l-204 -700h-157zM735 420l-88 -263h36v76h123v-233h-156v61h-187l122 359h150zM84 547q4 -8 18.5 -15t32.5 -7q12 0 22 9.5t10 22.5q0 11 -12 20t-31 9q-24 0 -46.5 -5.5t-39.5 -16.5v135q4 3 17.5 5.5t30 4.5t32.5 3.5t26 1.5q35 0 67 -7t56 -22
t38.5 -39.5t14.5 -58.5q0 -32 -12 -56t-41 -41q29 -17 41 -41t12 -56q0 -35 -14.5 -59t-38.5 -39t-56 -22t-67 -7q-10 0 -26 1.5t-32.5 3.5t-30 4.5t-17.5 5.5v135q17 -11 39.5 -16.5t46.5 -5.5q19 0 31 9t12 20q0 13 -10 22.5t-22 9.5q-18 0 -32.5 -7t-18.5 -15v114z" />
    <glyph glyph-name="questiondown" unicode="&#xbf;" horiz-adv-x="573" 
d="M363 426q14 -8 24 -23.5t10 -32.5q0 -24 -9 -37.5t-22 -21t-28.5 -11.5t-28.5 -8.5t-22 -12.5t-9 -23q0 -18 19.5 -28.5t72.5 -10.5q19 0 42.5 4t48 12t47.5 21.5t40 32.5v-231q-23 -21 -50 -34.5t-56.5 -21.5t-58.5 -11t-55 -3q-89 0 -148.5 18.5t-96.5 50t-52.5 72.5
t-15.5 85q0 52 18 87t47 56.5t65 31t72 10.5q18 1 38 -1.5t41 -0.5q7 1 13 5.5t6 13.5q0 6 -3 12h51zM467 580q0 -27 -10.5 -51.5t-28.5 -42.5t-42.5 -28.5t-51.5 -10.5t-51.5 10.5t-42.5 28.5t-28.5 42.5t-10.5 51.5t10.5 51.5t28.5 42.5t42.5 28.5t51.5 10.5t51.5 -10.5
t42.5 -28.5t28.5 -42.5t10.5 -51.5z" />
    <glyph glyph-name="Agrave" unicode="&#xc0;" horiz-adv-x="788" 
d="M413 888l41 -138h-82l-88 138h129zM496 0l-25 51l-77 -121l-77 121l-25 -51h-292l394 720l394 -720h-292zM346 111h95l-47 97z" />
    <glyph glyph-name="Aacute" unicode="&#xc1;" horiz-adv-x="788" 
d="M504 888l-88 -138h-82l41 138h129zM496 0l-25 51l-77 -121l-77 121l-25 -51h-292l394 720l394 -720h-292zM346 111h95l-47 97z" />
    <glyph glyph-name="Acircumflex" unicode="&#xc2;" horiz-adv-x="788" 
d="M339 888h110l77 -138h-81l-51 64l-51 -64h-81zM496 0l-25 51l-77 -121l-77 121l-25 -51h-292l394 720l394 -720h-292zM346 111h95l-47 97z" />
    <glyph glyph-name="Atilde" unicode="&#xc3;" horiz-adv-x="788" 
d="M440 767q-18 0 -29.5 4t-21.5 9.5t-19 9.5t-22 4q-18 0 -32.5 -6.5t-31.5 -26.5v78q8 11 25.5 20.5t38.5 9.5q17 0 29 -4t21.5 -8.5t18.5 -8.5t21 -4q19 0 34 5.5t32 24.5v-75q-8 -11 -26 -21.5t-38 -10.5zM496 0l-25 51l-77 -121l-77 121l-25 -51h-292l394 720l394 -720
h-292zM346 111h95l-47 97z" />
    <glyph glyph-name="Adieresis" unicode="&#xc4;" horiz-adv-x="788" 
d="M249 819q0 26 17.5 43.5t43.5 17.5t43.5 -17.5t17.5 -43.5t-17.5 -43.5t-43.5 -17.5t-43.5 17.5t-17.5 43.5zM416 819q0 26 17.5 43.5t43.5 17.5t43.5 -17.5t17.5 -43.5t-17.5 -43.5t-43.5 -17.5t-43.5 17.5t-17.5 43.5zM496 0l-25 51l-77 -121l-77 121l-25 -51h-292
l394 720l394 -720h-292zM346 111h95l-47 97z" />
    <glyph glyph-name="Aring" unicode="&#xc5;" horiz-adv-x="788" 
d="M317 819q0 31 22 52.5t54 21.5t54.5 -21.5t22.5 -52.5t-22.5 -52.5t-54.5 -21.5t-54 21.5t-22 52.5zM367 819q0 -13 7.5 -20.5t18.5 -7.5q12 0 19.5 7.5t7.5 20.5t-7.5 21t-19.5 8q-11 0 -18.5 -8t-7.5 -21zM496 0l-25 51l-77 -121l-77 121l-25 -51h-292l394 720
l394 -720h-292zM346 111h95l-47 97z" />
    <glyph glyph-name="AE" unicode="&#xc6;" horiz-adv-x="916" 
d="M423 268l-131 -268h-292l383 700h486v-235h-59v-230h59v-235h-446v268zM810 465h-127v-81zM810 235h-127v80z" />
    <glyph glyph-name="Ccedilla" unicode="&#xc7;" horiz-adv-x="480" 
d="M281 -52q5 1 10 1.5t10 0.5q29 0 45.5 -15t16.5 -39q0 -33 -26.5 -53t-63.5 -20q-29 0 -45.5 3t-32.5 10v55q15 -10 35 -10q11 0 19.5 3.5t8.5 11.5q0 11 -11.5 14t-32.5 3l31 106q-49 20 -89.5 53t-70 76t-46 94.5t-16.5 107.5q0 74 28 139t76 113.5t113 76.5t139 28
q13 0 30 -0.5t29 -2.5v-238h-51q-24 0 -44.5 -9.5t-36.5 -25t-25 -36.5t-9 -45t9 -45t25 -36.5t36.5 -25t44.5 -9.5h51v-238q-12 -2 -29 -2.5t-30 -0.5q-21 0 -41 2.5t-40 6.5z" />
    <glyph glyph-name="Egrave" unicode="&#xc8;" horiz-adv-x="543" 
d="M290 888l41 -138h-82l-88 138h129zM50 700h446v-235h-59v-230h59v-235h-446v700zM437 235h-127v80zM437 465h-127v-81z" />
    <glyph glyph-name="Eacute" unicode="&#xc9;" horiz-adv-x="543" 
d="M381 888l-88 -138h-82l41 138h129zM50 700h446v-235h-59v-230h59v-235h-446v700zM437 235h-127v80zM437 465h-127v-81z" />
    <glyph glyph-name="Ecircumflex" unicode="&#xca;" horiz-adv-x="543" 
d="M216 888h110l77 -138h-81l-51 64l-51 -64h-81zM50 700h446v-235h-59v-230h59v-235h-446v700zM437 235h-127v80zM437 465h-127v-81z" />
    <glyph glyph-name="Edieresis" unicode="&#xcb;" horiz-adv-x="543" 
d="M127 819q0 26 17.5 43.5t43.5 17.5t43.5 -17.5t17.5 -43.5t-17.5 -43.5t-43.5 -17.5t-43.5 17.5t-17.5 43.5zM294 819q0 26 17.5 43.5t43.5 17.5t43.5 -17.5t17.5 -43.5t-17.5 -43.5t-43.5 -17.5t-43.5 17.5t-17.5 43.5zM50 700h446v-235h-59v-230h59v-235h-446v700z
M437 235h-127v80zM437 465h-127v-81z" />
    <glyph glyph-name="Igrave" unicode="&#xcc;" horiz-adv-x="360" 
d="M199 888l41 -138h-82l-88 138h129zM50 0v700h260v-700h-260z" />
    <glyph glyph-name="Iacute" unicode="&#xcd;" horiz-adv-x="360" 
d="M290 888l-88 -138h-82l41 138h129zM50 0v700h260v-700h-260z" />
    <glyph glyph-name="Icircumflex" unicode="&#xce;" horiz-adv-x="360" 
d="M125 888h110l77 -138h-81l-51 64l-51 -64h-81zM50 0v700h260v-700h-260z" />
    <glyph glyph-name="Idieresis" unicode="&#xcf;" horiz-adv-x="360" 
d="M35 819q0 26 17.5 43.5t43.5 17.5t43.5 -17.5t17.5 -43.5t-17.5 -43.5t-43.5 -17.5t-43.5 17.5t-17.5 43.5zM202 819q0 26 17.5 43.5t43.5 17.5t43.5 -17.5t17.5 -43.5t-17.5 -43.5t-43.5 -17.5t-43.5 17.5t-17.5 43.5zM50 0v700h260v-700h-260z" />
    <glyph glyph-name="Eth" unicode="&#xd0;" horiz-adv-x="676" 
d="M11 386h39v314h233q85 0 153.5 -26.5t116.5 -73t74 -110.5t26 -140t-26 -140t-74 -110.5t-116.5 -73t-153.5 -26.5h-233v308h-39v78zM404 350q0 49 -20.5 82t-50.5 33q-8 0 -13.5 -4t-9.5 -9v-66h36v-78h-36v-61q9 -12 23 -12q30 0 50.5 33t20.5 82z" />
    <glyph glyph-name="Ntilde" unicode="&#xd1;" horiz-adv-x="728" 
d="M410 767q-18 0 -29.5 4t-21.5 9.5t-19 9.5t-22 4q-18 0 -32.5 -6.5t-31.5 -26.5v78q8 11 25.5 20.5t38.5 9.5q17 0 29 -4t21.5 -8.5t18.5 -8.5t21 -4q19 0 34 5.5t32 24.5v-75q-8 -11 -26 -21.5t-38 -10.5zM418 0v296l-108 46v-342h-260v720l368 -152v132h260v-700h-260z
" />
    <glyph glyph-name="Ograve" unicode="&#xd2;" horiz-adv-x="776" 
d="M407 888l41 -138h-82l-88 138h129zM388 473q-29 0 -50.5 -10.5t-36 -28t-22 -39.5t-7.5 -45t7.5 -45.5t22 -39.5t36 -27.5t50.5 -10.5q28 0 50 10.5t36.5 27.5t22 39.5t7.5 45.5t-7.5 45t-22 39.5t-36.5 28t-50 10.5zM388 -14q-80 0 -147 27.5t-115.5 76t-75.5 115.5
t-27 145q0 73 27 139t75.5 116t115.5 79.5t147 29.5t147 -29.5t115.5 -79.5t75.5 -116t27 -139q0 -78 -27 -145t-75.5 -115.5t-115.5 -76t-147 -27.5z" />
    <glyph glyph-name="Oacute" unicode="&#xd3;" horiz-adv-x="776" 
d="M498 888l-88 -138h-82l41 138h129zM388 473q-29 0 -50.5 -10.5t-36 -28t-22 -39.5t-7.5 -45t7.5 -45.5t22 -39.5t36 -27.5t50.5 -10.5q28 0 50 10.5t36.5 27.5t22 39.5t7.5 45.5t-7.5 45t-22 39.5t-36.5 28t-50 10.5zM388 -14q-80 0 -147 27.5t-115.5 76t-75.5 115.5
t-27 145q0 73 27 139t75.5 116t115.5 79.5t147 29.5t147 -29.5t115.5 -79.5t75.5 -116t27 -139q0 -78 -27 -145t-75.5 -115.5t-115.5 -76t-147 -27.5z" />
    <glyph glyph-name="Ocircumflex" unicode="&#xd4;" horiz-adv-x="776" 
d="M333 888h110l77 -138h-81l-51 64l-51 -64h-81zM388 473q-29 0 -50.5 -10.5t-36 -28t-22 -39.5t-7.5 -45t7.5 -45.5t22 -39.5t36 -27.5t50.5 -10.5q28 0 50 10.5t36.5 27.5t22 39.5t7.5 45.5t-7.5 45t-22 39.5t-36.5 28t-50 10.5zM388 -14q-80 0 -147 27.5t-115.5 76
t-75.5 115.5t-27 145q0 73 27 139t75.5 116t115.5 79.5t147 29.5t147 -29.5t115.5 -79.5t75.5 -116t27 -139q0 -78 -27 -145t-75.5 -115.5t-115.5 -76t-147 -27.5z" />
    <glyph glyph-name="Otilde" unicode="&#xd5;" horiz-adv-x="776" 
d="M434 767q-18 0 -29.5 4t-21.5 9.5t-19 9.5t-22 4q-18 0 -32.5 -6.5t-31.5 -26.5v78q8 11 25.5 20.5t38.5 9.5q17 0 29 -4t21.5 -8.5t18.5 -8.5t21 -4q19 0 34 5.5t32 24.5v-75q-8 -11 -26 -21.5t-38 -10.5zM388 473q-29 0 -50.5 -10.5t-36 -28t-22 -39.5t-7.5 -45
t7.5 -45.5t22 -39.5t36 -27.5t50.5 -10.5q28 0 50 10.5t36.5 27.5t22 39.5t7.5 45.5t-7.5 45t-22 39.5t-36.5 28t-50 10.5zM388 -14q-80 0 -147 27.5t-115.5 76t-75.5 115.5t-27 145q0 73 27 139t75.5 116t115.5 79.5t147 29.5t147 -29.5t115.5 -79.5t75.5 -116t27 -139
q0 -78 -27 -145t-75.5 -115.5t-115.5 -76t-147 -27.5z" />
    <glyph glyph-name="Odieresis" unicode="&#xd6;" horiz-adv-x="776" 
d="M243 819q0 26 17.5 43.5t43.5 17.5t43.5 -17.5t17.5 -43.5t-17.5 -43.5t-43.5 -17.5t-43.5 17.5t-17.5 43.5zM410 819q0 26 17.5 43.5t43.5 17.5t43.5 -17.5t17.5 -43.5t-17.5 -43.5t-43.5 -17.5t-43.5 17.5t-17.5 43.5zM388 473q-29 0 -50.5 -10.5t-36 -28t-22 -39.5
t-7.5 -45t7.5 -45.5t22 -39.5t36 -27.5t50.5 -10.5q28 0 50 10.5t36.5 27.5t22 39.5t7.5 45.5t-7.5 45t-22 39.5t-36.5 28t-50 10.5zM388 -14q-80 0 -147 27.5t-115.5 76t-75.5 115.5t-27 145q0 73 27 139t75.5 116t115.5 79.5t147 29.5t147 -29.5t115.5 -79.5t75.5 -116
t27 -139q0 -78 -27 -145t-75.5 -115.5t-115.5 -76t-147 -27.5z" />
    <glyph glyph-name="multiply" unicode="&#xd7;" horiz-adv-x="660" 
d="M203 623l126 -126l127 127l148 -148l-127 -127l126 -126l-147 -147l-126 126l-126 -126l-148 148l126 126l-126 126z" />
    <glyph glyph-name="Oslash" unicode="&#xd8;" horiz-adv-x="776" 
d="M388 -14q-17 0 -32 1.5t-30 3.5l-19 -66h-81l24 85q-52 19 -94 52t-71.5 77t-45.5 97.5t-16 113.5q0 73 27 139t75.5 116t115.5 79.5t147 29.5q16 0 31 -1.5t30 -3.5l19 66h81l-25 -86q52 -20 94.5 -54.5t72.5 -79t46 -97t16 -108.5q0 -78 -27 -145t-75.5 -115.5
t-115.5 -76t-147 -27.5zM388 473q-29 0 -50.5 -10.5t-36 -28t-22 -39.5t-7.5 -45t7.5 -45.5t22 -39.5t36 -27.5t50.5 -10.5q28 0 50 10.5t36.5 27.5t22 39.5t7.5 45.5t-7.5 45t-22 39.5t-36.5 28t-50 10.5z" />
    <glyph glyph-name="Ugrave" unicode="&#xd9;" 
d="M357 888l41 -138h-82l-88 138h129zM37 700h260v-423q0 -17 10.5 -31.5t30.5 -14.5t31 14.5t11 31.5v423h260v-426q0 -61 -21 -113t-60 -90t-95 -59.5t-126 -21.5t-126 21.5t-95 59.5t-59.5 90t-20.5 113v426z" />
    <glyph glyph-name="Uacute" unicode="&#xda;" 
d="M448 888l-88 -138h-82l41 138h129zM37 700h260v-423q0 -17 10.5 -31.5t30.5 -14.5t31 14.5t11 31.5v423h260v-426q0 -61 -21 -113t-60 -90t-95 -59.5t-126 -21.5t-126 21.5t-95 59.5t-59.5 90t-20.5 113v426z" />
    <glyph glyph-name="Ucircumflex" unicode="&#xdb;" 
d="M283 888h110l77 -138h-81l-51 64l-51 -64h-81zM37 700h260v-423q0 -17 10.5 -31.5t30.5 -14.5t31 14.5t11 31.5v423h260v-426q0 -61 -21 -113t-60 -90t-95 -59.5t-126 -21.5t-126 21.5t-95 59.5t-59.5 90t-20.5 113v426z" />
    <glyph glyph-name="Udieresis" unicode="&#xdc;" 
d="M194 819q0 26 17.5 43.5t43.5 17.5t43.5 -17.5t17.5 -43.5t-17.5 -43.5t-43.5 -17.5t-43.5 17.5t-17.5 43.5zM361 819q0 26 17.5 43.5t43.5 17.5t43.5 -17.5t17.5 -43.5t-17.5 -43.5t-43.5 -17.5t-43.5 17.5t-17.5 43.5zM37 700h260v-423q0 -17 10.5 -31.5t30.5 -14.5
t31 14.5t11 31.5v423h260v-426q0 -61 -21 -113t-60 -90t-95 -59.5t-126 -21.5t-126 21.5t-95 59.5t-59.5 90t-20.5 113v426z" />
    <glyph glyph-name="Yacute" unicode="&#xdd;" horiz-adv-x="765" 
d="M492 888l-88 -138h-82l41 138h129zM252 0v239l-252 461h286l96 -190l97 190h286l-253 -463v-237h-260z" />
    <glyph glyph-name="Thorn" unicode="&#xde;" horiz-adv-x="654" 
d="M634 350q0 -53 -17.5 -104.5t-56.5 -93t-100.5 -67.5t-149.5 -29v-56h-260v700h260v-56q88 -3 149.5 -29t100.5 -67.5t56.5 -93t17.5 -104.5zM336 289q20 0 34 19t14 42t-14 42t-34 19q-8 0 -14.5 -1.5t-11.5 -7.5v-104q5 -6 11.5 -7.5t14.5 -1.5z" />
    <glyph glyph-name="agrave" unicode="&#xe0;" horiz-adv-x="788" 
d="M413 888l41 -138h-82l-88 138h129zM496 0l-25 51l-77 -121l-77 121l-25 -51h-292l394 720l394 -720h-292zM346 111h95l-47 97z" />
    <glyph glyph-name="aacute" unicode="&#xe1;" horiz-adv-x="788" 
d="M504 888l-88 -138h-82l41 138h129zM496 0l-25 51l-77 -121l-77 121l-25 -51h-292l394 720l394 -720h-292zM346 111h95l-47 97z" />
    <glyph glyph-name="acircumflex" unicode="&#xe2;" horiz-adv-x="788" 
d="M339 888h110l77 -138h-81l-51 64l-51 -64h-81zM496 0l-25 51l-77 -121l-77 121l-25 -51h-292l394 720l394 -720h-292zM346 111h95l-47 97z" />
    <glyph glyph-name="atilde" unicode="&#xe3;" horiz-adv-x="788" 
d="M440 767q-18 0 -29.5 4t-21.5 9.5t-19 9.5t-22 4q-18 0 -32.5 -6.5t-31.5 -26.5v78q8 11 25.5 20.5t38.5 9.5q17 0 29 -4t21.5 -8.5t18.5 -8.5t21 -4q19 0 34 5.5t32 24.5v-75q-8 -11 -26 -21.5t-38 -10.5zM496 0l-25 51l-77 -121l-77 121l-25 -51h-292l394 720l394 -720
h-292zM346 111h95l-47 97z" />
    <glyph glyph-name="adieresis" unicode="&#xe4;" horiz-adv-x="788" 
d="M249 819q0 26 17.5 43.5t43.5 17.5t43.5 -17.5t17.5 -43.5t-17.5 -43.5t-43.5 -17.5t-43.5 17.5t-17.5 43.5zM416 819q0 26 17.5 43.5t43.5 17.5t43.5 -17.5t17.5 -43.5t-17.5 -43.5t-43.5 -17.5t-43.5 17.5t-17.5 43.5zM496 0l-25 51l-77 -121l-77 121l-25 -51h-292
l394 720l394 -720h-292zM346 111h95l-47 97z" />
    <glyph glyph-name="aring" unicode="&#xe5;" horiz-adv-x="788" 
d="M317 819q0 31 22 52.5t54 21.5t54.5 -21.5t22.5 -52.5t-22.5 -52.5t-54.5 -21.5t-54 21.5t-22 52.5zM367 819q0 -13 7.5 -20.5t18.5 -7.5q12 0 19.5 7.5t7.5 20.5t-7.5 21t-19.5 8q-11 0 -18.5 -8t-7.5 -21zM496 0l-25 51l-77 -121l-77 121l-25 -51h-292l394 720
l394 -720h-292zM346 111h95l-47 97z" />
    <glyph glyph-name="ae" unicode="&#xe6;" horiz-adv-x="916" 
d="M423 268l-131 -268h-292l383 700h486v-235h-59v-230h59v-235h-446v268zM810 465h-127v-81zM810 235h-127v80z" />
    <glyph glyph-name="ccedilla" unicode="&#xe7;" horiz-adv-x="480" 
d="M281 -52q5 1 10 1.5t10 0.5q29 0 45.5 -15t16.5 -39q0 -33 -26.5 -53t-63.5 -20q-29 0 -45.5 3t-32.5 10v55q15 -10 35 -10q11 0 19.5 3.5t8.5 11.5q0 11 -11.5 14t-32.5 3l31 106q-49 20 -89.5 53t-70 76t-46 94.5t-16.5 107.5q0 74 28 139t76 113.5t113 76.5t139 28
q13 0 30 -0.5t29 -2.5v-238h-51q-24 0 -44.5 -9.5t-36.5 -25t-25 -36.5t-9 -45t9 -45t25 -36.5t36.5 -25t44.5 -9.5h51v-238q-12 -2 -29 -2.5t-30 -0.5q-21 0 -41 2.5t-40 6.5z" />
    <glyph glyph-name="egrave" unicode="&#xe8;" horiz-adv-x="543" 
d="M290 888l41 -138h-82l-88 138h129zM50 700h446v-235h-59v-230h59v-235h-446v700zM437 235h-127v80zM437 465h-127v-81z" />
    <glyph glyph-name="eacute" unicode="&#xe9;" horiz-adv-x="543" 
d="M381 888l-88 -138h-82l41 138h129zM50 700h446v-235h-59v-230h59v-235h-446v700zM437 235h-127v80zM437 465h-127v-81z" />
    <glyph glyph-name="ecircumflex" unicode="&#xea;" horiz-adv-x="543" 
d="M216 888h110l77 -138h-81l-51 64l-51 -64h-81zM50 700h446v-235h-59v-230h59v-235h-446v700zM437 235h-127v80zM437 465h-127v-81z" />
    <glyph glyph-name="edieresis" unicode="&#xeb;" horiz-adv-x="543" 
d="M127 819q0 26 17.5 43.5t43.5 17.5t43.5 -17.5t17.5 -43.5t-17.5 -43.5t-43.5 -17.5t-43.5 17.5t-17.5 43.5zM294 819q0 26 17.5 43.5t43.5 17.5t43.5 -17.5t17.5 -43.5t-17.5 -43.5t-43.5 -17.5t-43.5 17.5t-17.5 43.5zM50 700h446v-235h-59v-230h59v-235h-446v700z
M437 235h-127v80zM437 465h-127v-81z" />
    <glyph glyph-name="igrave" unicode="&#xec;" horiz-adv-x="360" 
d="M199 888l41 -138h-82l-88 138h129zM50 0v700h260v-700h-260z" />
    <glyph glyph-name="iacute" unicode="&#xed;" horiz-adv-x="360" 
d="M290 888l-88 -138h-82l41 138h129zM50 0v700h260v-700h-260z" />
    <glyph glyph-name="icircumflex" unicode="&#xee;" horiz-adv-x="360" 
d="M125 888h110l77 -138h-81l-51 64l-51 -64h-81zM50 0v700h260v-700h-260z" />
    <glyph glyph-name="idieresis" unicode="&#xef;" horiz-adv-x="360" 
d="M35 819q0 26 17.5 43.5t43.5 17.5t43.5 -17.5t17.5 -43.5t-17.5 -43.5t-43.5 -17.5t-43.5 17.5t-17.5 43.5zM202 819q0 26 17.5 43.5t43.5 17.5t43.5 -17.5t17.5 -43.5t-17.5 -43.5t-43.5 -17.5t-43.5 17.5t-17.5 43.5zM50 0v700h260v-700h-260z" />
    <glyph glyph-name="eth" unicode="&#xf0;" horiz-adv-x="676" 
d="M11 386h39v314h233q85 0 153.5 -26.5t116.5 -73t74 -110.5t26 -140t-26 -140t-74 -110.5t-116.5 -73t-153.5 -26.5h-233v308h-39v78zM404 350q0 49 -20.5 82t-50.5 33q-8 0 -13.5 -4t-9.5 -9v-66h36v-78h-36v-61q9 -12 23 -12q30 0 50.5 33t20.5 82z" />
    <glyph glyph-name="ntilde" unicode="&#xf1;" horiz-adv-x="728" 
d="M410 767q-18 0 -29.5 4t-21.5 9.5t-19 9.5t-22 4q-18 0 -32.5 -6.5t-31.5 -26.5v78q8 11 25.5 20.5t38.5 9.5q17 0 29 -4t21.5 -8.5t18.5 -8.5t21 -4q19 0 34 5.5t32 24.5v-75q-8 -11 -26 -21.5t-38 -10.5zM418 0v296l-108 46v-342h-260v720l368 -152v132h260v-700h-260z
" />
    <glyph glyph-name="ograve" unicode="&#xf2;" horiz-adv-x="776" 
d="M407 888l41 -138h-82l-88 138h129zM388 473q-29 0 -50.5 -10.5t-36 -28t-22 -39.5t-7.5 -45t7.5 -45.5t22 -39.5t36 -27.5t50.5 -10.5q28 0 50 10.5t36.5 27.5t22 39.5t7.5 45.5t-7.5 45t-22 39.5t-36.5 28t-50 10.5zM388 -14q-80 0 -147 27.5t-115.5 76t-75.5 115.5
t-27 145q0 73 27 139t75.5 116t115.5 79.5t147 29.5t147 -29.5t115.5 -79.5t75.5 -116t27 -139q0 -78 -27 -145t-75.5 -115.5t-115.5 -76t-147 -27.5z" />
    <glyph glyph-name="oacute" unicode="&#xf3;" horiz-adv-x="776" 
d="M498 888l-88 -138h-82l41 138h129zM388 473q-29 0 -50.5 -10.5t-36 -28t-22 -39.5t-7.5 -45t7.5 -45.5t22 -39.5t36 -27.5t50.5 -10.5q28 0 50 10.5t36.5 27.5t22 39.5t7.5 45.5t-7.5 45t-22 39.5t-36.5 28t-50 10.5zM388 -14q-80 0 -147 27.5t-115.5 76t-75.5 115.5
t-27 145q0 73 27 139t75.5 116t115.5 79.5t147 29.5t147 -29.5t115.5 -79.5t75.5 -116t27 -139q0 -78 -27 -145t-75.5 -115.5t-115.5 -76t-147 -27.5z" />
    <glyph glyph-name="ocircumflex" unicode="&#xf4;" horiz-adv-x="776" 
d="M333 888h110l77 -138h-81l-51 64l-51 -64h-81zM388 473q-29 0 -50.5 -10.5t-36 -28t-22 -39.5t-7.5 -45t7.5 -45.5t22 -39.5t36 -27.5t50.5 -10.5q28 0 50 10.5t36.5 27.5t22 39.5t7.5 45.5t-7.5 45t-22 39.5t-36.5 28t-50 10.5zM388 -14q-80 0 -147 27.5t-115.5 76
t-75.5 115.5t-27 145q0 73 27 139t75.5 116t115.5 79.5t147 29.5t147 -29.5t115.5 -79.5t75.5 -116t27 -139q0 -78 -27 -145t-75.5 -115.5t-115.5 -76t-147 -27.5z" />
    <glyph glyph-name="otilde" unicode="&#xf5;" horiz-adv-x="776" 
d="M434 767q-18 0 -29.5 4t-21.5 9.5t-19 9.5t-22 4q-18 0 -32.5 -6.5t-31.5 -26.5v78q8 11 25.5 20.5t38.5 9.5q17 0 29 -4t21.5 -8.5t18.5 -8.5t21 -4q19 0 34 5.5t32 24.5v-75q-8 -11 -26 -21.5t-38 -10.5zM388 473q-29 0 -50.5 -10.5t-36 -28t-22 -39.5t-7.5 -45
t7.5 -45.5t22 -39.5t36 -27.5t50.5 -10.5q28 0 50 10.5t36.5 27.5t22 39.5t7.5 45.5t-7.5 45t-22 39.5t-36.5 28t-50 10.5zM388 -14q-80 0 -147 27.5t-115.5 76t-75.5 115.5t-27 145q0 73 27 139t75.5 116t115.5 79.5t147 29.5t147 -29.5t115.5 -79.5t75.5 -116t27 -139
q0 -78 -27 -145t-75.5 -115.5t-115.5 -76t-147 -27.5z" />
    <glyph glyph-name="odieresis" unicode="&#xf6;" horiz-adv-x="776" 
d="M243 819q0 26 17.5 43.5t43.5 17.5t43.5 -17.5t17.5 -43.5t-17.5 -43.5t-43.5 -17.5t-43.5 17.5t-17.5 43.5zM410 819q0 26 17.5 43.5t43.5 17.5t43.5 -17.5t17.5 -43.5t-17.5 -43.5t-43.5 -17.5t-43.5 17.5t-17.5 43.5zM388 473q-29 0 -50.5 -10.5t-36 -28t-22 -39.5
t-7.5 -45t7.5 -45.5t22 -39.5t36 -27.5t50.5 -10.5q28 0 50 10.5t36.5 27.5t22 39.5t7.5 45.5t-7.5 45t-22 39.5t-36.5 28t-50 10.5zM388 -14q-80 0 -147 27.5t-115.5 76t-75.5 115.5t-27 145q0 73 27 139t75.5 116t115.5 79.5t147 29.5t147 -29.5t115.5 -79.5t75.5 -116
t27 -139q0 -78 -27 -145t-75.5 -115.5t-115.5 -76t-147 -27.5z" />
    <glyph glyph-name="divide" unicode="&#xf7;" horiz-adv-x="660" 
d="M445 102q0 -24 -9 -45t-25 -37t-36.5 -25t-44.5 -9t-44.5 9t-36.5 25t-25 37t-9 45t9 44.5t25 36.5t36.5 25t44.5 9t44.5 -9t36.5 -25t25 -36.5t9 -44.5zM60 453h540v-208h-540v208zM445 599q0 -24 -9 -45t-25 -37t-36.5 -25t-44.5 -9t-44.5 9t-36.5 25t-25 37t-9 45
t9 44.5t25 36.5t36.5 25t44.5 9t44.5 -9t36.5 -25t25 -36.5t9 -44.5z" />
    <glyph glyph-name="oslash" unicode="&#xf8;" horiz-adv-x="776" 
d="M388 -14q-17 0 -32 1.5t-30 3.5l-19 -66h-81l24 85q-52 19 -94 52t-71.5 77t-45.5 97.5t-16 113.5q0 73 27 139t75.5 116t115.5 79.5t147 29.5q16 0 31 -1.5t30 -3.5l19 66h81l-25 -86q52 -20 94.5 -54.5t72.5 -79t46 -97t16 -108.5q0 -78 -27 -145t-75.5 -115.5
t-115.5 -76t-147 -27.5zM388 473q-29 0 -50.5 -10.5t-36 -28t-22 -39.5t-7.5 -45t7.5 -45.5t22 -39.5t36 -27.5t50.5 -10.5q28 0 50 10.5t36.5 27.5t22 39.5t7.5 45.5t-7.5 45t-22 39.5t-36.5 28t-50 10.5z" />
    <glyph glyph-name="ugrave" unicode="&#xf9;" 
d="M357 888l41 -138h-82l-88 138h129zM37 700h260v-423q0 -17 10.5 -31.5t30.5 -14.5t31 14.5t11 31.5v423h260v-426q0 -61 -21 -113t-60 -90t-95 -59.5t-126 -21.5t-126 21.5t-95 59.5t-59.5 90t-20.5 113v426z" />
    <glyph glyph-name="uacute" unicode="&#xfa;" 
d="M448 888l-88 -138h-82l41 138h129zM37 700h260v-423q0 -17 10.5 -31.5t30.5 -14.5t31 14.5t11 31.5v423h260v-426q0 -61 -21 -113t-60 -90t-95 -59.5t-126 -21.5t-126 21.5t-95 59.5t-59.5 90t-20.5 113v426z" />
    <glyph glyph-name="ucircumflex" unicode="&#xfb;" 
d="M283 888h110l77 -138h-81l-51 64l-51 -64h-81zM37 700h260v-423q0 -17 10.5 -31.5t30.5 -14.5t31 14.5t11 31.5v423h260v-426q0 -61 -21 -113t-60 -90t-95 -59.5t-126 -21.5t-126 21.5t-95 59.5t-59.5 90t-20.5 113v426z" />
    <glyph glyph-name="udieresis" unicode="&#xfc;" 
d="M194 819q0 26 17.5 43.5t43.5 17.5t43.5 -17.5t17.5 -43.5t-17.5 -43.5t-43.5 -17.5t-43.5 17.5t-17.5 43.5zM361 819q0 26 17.5 43.5t43.5 17.5t43.5 -17.5t17.5 -43.5t-17.5 -43.5t-43.5 -17.5t-43.5 17.5t-17.5 43.5zM37 700h260v-423q0 -17 10.5 -31.5t30.5 -14.5
t31 14.5t11 31.5v423h260v-426q0 -61 -21 -113t-60 -90t-95 -59.5t-126 -21.5t-126 21.5t-95 59.5t-59.5 90t-20.5 113v426z" />
    <glyph glyph-name="yacute" unicode="&#xfd;" horiz-adv-x="765" 
d="M492 888l-88 -138h-82l41 138h129zM252 0v239l-252 461h286l96 -190l97 190h286l-253 -463v-237h-260z" />
    <glyph glyph-name="thorn" unicode="&#xfe;" horiz-adv-x="654" 
d="M634 350q0 -53 -17.5 -104.5t-56.5 -93t-100.5 -67.5t-149.5 -29v-56h-260v700h260v-56q88 -3 149.5 -29t100.5 -67.5t56.5 -93t17.5 -104.5zM336 289q20 0 34 19t14 42t-14 42t-34 19q-8 0 -14.5 -1.5t-11.5 -7.5v-104q5 -6 11.5 -7.5t14.5 -1.5z" />
    <glyph glyph-name="ydieresis" unicode="&#xff;" horiz-adv-x="765" 
d="M238 819q0 26 17.5 43.5t43.5 17.5t43.5 -17.5t17.5 -43.5t-17.5 -43.5t-43.5 -17.5t-43.5 17.5t-17.5 43.5zM405 819q0 26 17.5 43.5t43.5 17.5t43.5 -17.5t17.5 -43.5t-17.5 -43.5t-43.5 -17.5t-43.5 17.5t-17.5 43.5zM252 0v239l-252 461h286l96 -190l97 190h286
l-253 -463v-237h-260z" />
    <glyph glyph-name="Amacron" unicode="&#x100;" horiz-adv-x="788" 
d="M288 858h212v-78h-212v78zM496 0l-25 51l-77 -121l-77 121l-25 -51h-292l394 720l394 -720h-292zM346 111h95l-47 97z" />
    <glyph glyph-name="amacron" unicode="&#x101;" horiz-adv-x="788" 
d="M288 858h212v-78h-212v78zM496 0l-25 51l-77 -121l-77 121l-25 -51h-292l394 720l394 -720h-292zM346 111h95l-47 97z" />
    <glyph glyph-name="Abreve" unicode="&#x102;" horiz-adv-x="788" 
d="M394 823q18 0 29.5 10t11.5 37v12h69q1 -7 1 -12.5v-11.5q0 -35 -11 -57.5t-27.5 -35.5t-36 -18.5t-36.5 -5.5q-18 0 -37.5 5.5t-36 18.5t-27.5 35.5t-11 57.5v11.5t1 12.5h69v-10q0 -28 11 -38.5t31 -10.5zM496 0l-25 51l-77 -121l-77 121l-25 -51h-292l394 720
l394 -720h-292zM346 111h95l-47 97z" />
    <glyph glyph-name="abreve" unicode="&#x103;" horiz-adv-x="788" 
d="M394 823q18 0 29.5 10t11.5 37v12h69q1 -7 1 -12.5v-11.5q0 -35 -11 -57.5t-27.5 -35.5t-36 -18.5t-36.5 -5.5q-18 0 -37.5 5.5t-36 18.5t-27.5 35.5t-11 57.5v11.5t1 12.5h69v-10q0 -28 11 -38.5t31 -10.5zM496 0l-25 51l-77 -121l-77 121l-25 -51h-292l394 720
l394 -720h-292zM346 111h95l-47 97z" />
    <glyph glyph-name="Aogonek" unicode="&#x104;" horiz-adv-x="788" 
d="M683 0q-20 -24 -26 -38.5t-6 -31.5t9 -29.5t32 -12.5q9 0 21 4t21 13v-59q-11 -11 -29 -17t-46 -6q-42 0 -68 20t-26 58q0 12 4.5 26t13 28t20 25.5t26.5 19.5h-133l-25 51l-77 -121l-77 121l-25 -51h-292l394 720l394 -720h-105zM346 111h95l-47 97z" />
    <glyph glyph-name="aogonek" unicode="&#x105;" horiz-adv-x="788" 
d="M683 0q-20 -24 -26 -38.5t-6 -31.5t9 -29.5t32 -12.5q9 0 21 4t21 13v-59q-11 -11 -29 -17t-46 -6q-42 0 -68 20t-26 58q0 12 4.5 26t13 28t20 25.5t26.5 19.5h-133l-25 51l-77 -121l-77 121l-25 -51h-292l394 720l394 -720h-105zM346 111h95l-47 97z" />
    <glyph glyph-name="Cacute" unicode="&#x106;" horiz-adv-x="480" 
d="M399 888l-88 -138h-82l41 138h129zM272 350q0 -24 9 -45t25 -36.5t36.5 -25t44.5 -9.5h51v-238q-12 -2 -29 -2.5t-30 -0.5q-74 0 -139 28t-113 76.5t-76 113.5t-28 139t28 139t76 113.5t113 76.5t139 28q13 0 30 -0.5t29 -2.5v-238h-51q-24 0 -44.5 -9.5t-36.5 -25
t-25 -36.5t-9 -45z" />
    <glyph glyph-name="cacute" unicode="&#x107;" horiz-adv-x="480" 
d="M399 888l-88 -138h-82l41 138h129zM272 350q0 -24 9 -45t25 -36.5t36.5 -25t44.5 -9.5h51v-238q-12 -2 -29 -2.5t-30 -0.5q-74 0 -139 28t-113 76.5t-76 113.5t-28 139t28 139t76 113.5t113 76.5t139 28q13 0 30 -0.5t29 -2.5v-238h-51q-24 0 -44.5 -9.5t-36.5 -25
t-25 -36.5t-9 -45z" />
    <glyph glyph-name="Ccircumflex" unicode="&#x108;" horiz-adv-x="480" 
d="M234 888h110l77 -138h-81l-51 64l-51 -64h-81zM272 350q0 -24 9 -45t25 -36.5t36.5 -25t44.5 -9.5h51v-238q-12 -2 -29 -2.5t-30 -0.5q-74 0 -139 28t-113 76.5t-76 113.5t-28 139t28 139t76 113.5t113 76.5t139 28q13 0 30 -0.5t29 -2.5v-238h-51q-24 0 -44.5 -9.5
t-36.5 -25t-25 -36.5t-9 -45z" />
    <glyph glyph-name="ccircumflex" unicode="&#x109;" horiz-adv-x="480" 
d="M234 888h110l77 -138h-81l-51 64l-51 -64h-81zM272 350q0 -24 9 -45t25 -36.5t36.5 -25t44.5 -9.5h51v-238q-12 -2 -29 -2.5t-30 -0.5q-74 0 -139 28t-113 76.5t-76 113.5t-28 139t28 139t76 113.5t113 76.5t139 28q13 0 30 -0.5t29 -2.5v-238h-51q-24 0 -44.5 -9.5
t-36.5 -25t-25 -36.5t-9 -45z" />
    <glyph glyph-name="Cdotaccent" unicode="&#x10a;" horiz-adv-x="480" 
d="M228 819q0 26 17.5 43.5t43.5 17.5t43.5 -17.5t17.5 -43.5t-17.5 -43.5t-43.5 -17.5t-43.5 17.5t-17.5 43.5zM272 350q0 -24 9 -45t25 -36.5t36.5 -25t44.5 -9.5h51v-238q-12 -2 -29 -2.5t-30 -0.5q-74 0 -139 28t-113 76.5t-76 113.5t-28 139t28 139t76 113.5t113 76.5
t139 28q13 0 30 -0.5t29 -2.5v-238h-51q-24 0 -44.5 -9.5t-36.5 -25t-25 -36.5t-9 -45z" />
    <glyph glyph-name="cdotaccent" unicode="&#x10b;" horiz-adv-x="480" 
d="M228 819q0 26 17.5 43.5t43.5 17.5t43.5 -17.5t17.5 -43.5t-17.5 -43.5t-43.5 -17.5t-43.5 17.5t-17.5 43.5zM272 350q0 -24 9 -45t25 -36.5t36.5 -25t44.5 -9.5h51v-238q-12 -2 -29 -2.5t-30 -0.5q-74 0 -139 28t-113 76.5t-76 113.5t-28 139t28 139t76 113.5t113 76.5
t139 28q13 0 30 -0.5t29 -2.5v-238h-51q-24 0 -44.5 -9.5t-36.5 -25t-25 -36.5t-9 -45z" />
    <glyph glyph-name="Ccaron" unicode="&#x10c;" horiz-adv-x="480" 
d="M344 750h-110l-77 138h81l51 -64l51 64h81zM272 350q0 -24 9 -45t25 -36.5t36.5 -25t44.5 -9.5h51v-238q-12 -2 -29 -2.5t-30 -0.5q-74 0 -139 28t-113 76.5t-76 113.5t-28 139t28 139t76 113.5t113 76.5t139 28q13 0 30 -0.5t29 -2.5v-238h-51q-24 0 -44.5 -9.5
t-36.5 -25t-25 -36.5t-9 -45z" />
    <glyph glyph-name="ccaron" unicode="&#x10d;" horiz-adv-x="480" 
d="M344 750h-110l-77 138h81l51 -64l51 64h81zM272 350q0 -24 9 -45t25 -36.5t36.5 -25t44.5 -9.5h51v-238q-12 -2 -29 -2.5t-30 -0.5q-74 0 -139 28t-113 76.5t-76 113.5t-28 139t28 139t76 113.5t113 76.5t139 28q13 0 30 -0.5t29 -2.5v-238h-51q-24 0 -44.5 -9.5
t-36.5 -25t-25 -36.5t-9 -45z" />
    <glyph glyph-name="Dcaron" unicode="&#x10e;" horiz-adv-x="676" 
d="M377 750h-110l-77 138h81l51 -64l51 64h81zM50 0v700h233q85 0 153.5 -26.5t116.5 -73t74 -110.5t26 -140t-26 -140t-74 -110.5t-116.5 -73t-153.5 -26.5h-233zM404 350q0 49 -20.5 82t-50.5 33q-8 0 -13.5 -4t-9.5 -9v-205q9 -12 23 -12q30 0 50.5 33t20.5 82z" />
    <glyph glyph-name="dcaron" unicode="&#x10f;" horiz-adv-x="676" 
d="M377 750h-110l-77 138h81l51 -64l51 64h81zM50 0v700h233q85 0 153.5 -26.5t116.5 -73t74 -110.5t26 -140t-26 -140t-74 -110.5t-116.5 -73t-153.5 -26.5h-233zM404 350q0 49 -20.5 82t-50.5 33q-8 0 -13.5 -4t-9.5 -9v-205q9 -12 23 -12q30 0 50.5 33t20.5 82z" />
    <glyph glyph-name="Dcroat" unicode="&#x110;" horiz-adv-x="676" 
d="M11 386h39v314h233q85 0 153.5 -26.5t116.5 -73t74 -110.5t26 -140t-26 -140t-74 -110.5t-116.5 -73t-153.5 -26.5h-233v308h-39v78zM404 350q0 49 -20.5 82t-50.5 33q-8 0 -13.5 -4t-9.5 -9v-66h36v-78h-36v-61q9 -12 23 -12q30 0 50.5 33t20.5 82z" />
    <glyph glyph-name="dcroat" unicode="&#x111;" horiz-adv-x="676" 
d="M11 386h39v314h233q85 0 153.5 -26.5t116.5 -73t74 -110.5t26 -140t-26 -140t-74 -110.5t-116.5 -73t-153.5 -26.5h-233v308h-39v78zM404 350q0 49 -20.5 82t-50.5 33q-8 0 -13.5 -4t-9.5 -9v-66h36v-78h-36v-61q9 -12 23 -12q30 0 50.5 33t20.5 82z" />
    <glyph glyph-name="Emacron" unicode="&#x112;" horiz-adv-x="543" 
d="M165 858h212v-78h-212v78zM50 700h446v-235h-59v-230h59v-235h-446v700zM437 235h-127v80zM437 465h-127v-81z" />
    <glyph glyph-name="emacron" unicode="&#x113;" horiz-adv-x="543" 
d="M165 858h212v-78h-212v78zM50 700h446v-235h-59v-230h59v-235h-446v700zM437 235h-127v80zM437 465h-127v-81z" />
    <glyph glyph-name="Edotaccent" unicode="&#x116;" horiz-adv-x="543" 
d="M210 819q0 26 17.5 43.5t43.5 17.5t43.5 -17.5t17.5 -43.5t-17.5 -43.5t-43.5 -17.5t-43.5 17.5t-17.5 43.5zM50 700h446v-235h-59v-230h59v-235h-446v700zM437 235h-127v80zM437 465h-127v-81z" />
    <glyph glyph-name="edotaccent" unicode="&#x117;" horiz-adv-x="543" 
d="M210 819q0 26 17.5 43.5t43.5 17.5t43.5 -17.5t17.5 -43.5t-17.5 -43.5t-43.5 -17.5t-43.5 17.5t-17.5 43.5zM50 700h446v-235h-59v-230h59v-235h-446v700zM437 235h-127v80zM437 465h-127v-81z" />
    <glyph glyph-name="Eogonek" unicode="&#x118;" horiz-adv-x="543" 
d="M437 465h-127v-81zM437 235h-127v80zM50 0v700h446v-235h-59v-230h59v-235h-51q-20 -24 -26 -38.5t-6 -31.5t9 -29.5t32 -12.5q9 0 21 4t21 13v-59q-11 -11 -29 -17t-46 -6q-42 0 -68 20t-26 58q0 12 4.5 26t13 28t20 25.5t26.5 19.5h-341z" />
    <glyph glyph-name="eogonek" unicode="&#x119;" horiz-adv-x="543" 
d="M437 465h-127v-81zM437 235h-127v80zM50 0v700h446v-235h-59v-230h59v-235h-51q-20 -24 -26 -38.5t-6 -31.5t9 -29.5t32 -12.5q9 0 21 4t21 13v-59q-11 -11 -29 -17t-46 -6q-42 0 -68 20t-26 58q0 12 4.5 26t13 28t20 25.5t26.5 19.5h-341z" />
    <glyph glyph-name="Ecaron" unicode="&#x11a;" horiz-adv-x="543" 
d="M326 750h-110l-77 138h81l51 -64l51 64h81zM50 700h446v-235h-59v-230h59v-235h-446v700zM437 235h-127v80zM437 465h-127v-81z" />
    <glyph glyph-name="ecaron" unicode="&#x11b;" horiz-adv-x="543" 
d="M326 750h-110l-77 138h81l51 -64l51 64h81zM50 700h446v-235h-59v-230h59v-235h-446v700zM437 235h-127v80zM437 465h-127v-81z" />
    <glyph glyph-name="Gcircumflex" unicode="&#x11c;" horiz-adv-x="721" 
d="M305 888h110l77 -138h-81l-51 64l-51 -64h-81zM23 350q0 74 28 139t76 113.5t113 76.5t139 28q13 0 30 -0.5t29 -2.5v-238h-51q-24 0 -44.5 -9.5t-36.5 -25t-25 -36.5t-9 -45q0 -23 7.5 -45.5t22 -39.5t36 -27.5t50.5 -10.5q23 0 41 7v149h265v-386l-90 57
q-40 -32 -92.5 -50t-124.5 -18q-80 0 -147 27.5t-115 76t-75 115.5t-27 145z" />
    <glyph glyph-name="gcircumflex" unicode="&#x11d;" horiz-adv-x="721" 
d="M305 888h110l77 -138h-81l-51 64l-51 -64h-81zM23 350q0 74 28 139t76 113.5t113 76.5t139 28q13 0 30 -0.5t29 -2.5v-238h-51q-24 0 -44.5 -9.5t-36.5 -25t-25 -36.5t-9 -45q0 -23 7.5 -45.5t22 -39.5t36 -27.5t50.5 -10.5q23 0 41 7v149h265v-386l-90 57
q-40 -32 -92.5 -50t-124.5 -18q-80 0 -147 27.5t-115 76t-75 115.5t-27 145z" />
    <glyph glyph-name="Gbreve" unicode="&#x11e;" horiz-adv-x="721" 
d="M361 823q18 0 29.5 10t11.5 37v12h69q1 -7 1 -12.5v-11.5q0 -35 -11 -57.5t-27.5 -35.5t-36 -18.5t-36.5 -5.5q-18 0 -37.5 5.5t-36 18.5t-27.5 35.5t-11 57.5v11.5t1 12.5h69v-10q0 -28 11 -38.5t31 -10.5zM23 350q0 74 28 139t76 113.5t113 76.5t139 28q13 0 30 -0.5
t29 -2.5v-238h-51q-24 0 -44.5 -9.5t-36.5 -25t-25 -36.5t-9 -45q0 -23 7.5 -45.5t22 -39.5t36 -27.5t50.5 -10.5q23 0 41 7v149h265v-386l-90 57q-40 -32 -92.5 -50t-124.5 -18q-80 0 -147 27.5t-115 76t-75 115.5t-27 145z" />
    <glyph glyph-name="gbreve" unicode="&#x11f;" horiz-adv-x="721" 
d="M361 823q18 0 29.5 10t11.5 37v12h69q1 -7 1 -12.5v-11.5q0 -35 -11 -57.5t-27.5 -35.5t-36 -18.5t-36.5 -5.5q-18 0 -37.5 5.5t-36 18.5t-27.5 35.5t-11 57.5v11.5t1 12.5h69v-10q0 -28 11 -38.5t31 -10.5zM23 350q0 74 28 139t76 113.5t113 76.5t139 28q13 0 30 -0.5
t29 -2.5v-238h-51q-24 0 -44.5 -9.5t-36.5 -25t-25 -36.5t-9 -45q0 -23 7.5 -45.5t22 -39.5t36 -27.5t50.5 -10.5q23 0 41 7v149h265v-386l-90 57q-40 -32 -92.5 -50t-124.5 -18q-80 0 -147 27.5t-115 76t-75 115.5t-27 145z" />
    <glyph glyph-name="Gdotaccent" unicode="&#x120;" horiz-adv-x="721" 
d="M299 819q0 26 17.5 43.5t43.5 17.5t43.5 -17.5t17.5 -43.5t-17.5 -43.5t-43.5 -17.5t-43.5 17.5t-17.5 43.5zM23 350q0 74 28 139t76 113.5t113 76.5t139 28q13 0 30 -0.5t29 -2.5v-238h-51q-24 0 -44.5 -9.5t-36.5 -25t-25 -36.5t-9 -45q0 -23 7.5 -45.5t22 -39.5
t36 -27.5t50.5 -10.5q23 0 41 7v149h265v-386l-90 57q-40 -32 -92.5 -50t-124.5 -18q-80 0 -147 27.5t-115 76t-75 115.5t-27 145z" />
    <glyph glyph-name="gdotaccent" unicode="&#x121;" horiz-adv-x="721" 
d="M299 819q0 26 17.5 43.5t43.5 17.5t43.5 -17.5t17.5 -43.5t-17.5 -43.5t-43.5 -17.5t-43.5 17.5t-17.5 43.5zM23 350q0 74 28 139t76 113.5t113 76.5t139 28q13 0 30 -0.5t29 -2.5v-238h-51q-24 0 -44.5 -9.5t-36.5 -25t-25 -36.5t-9 -45q0 -23 7.5 -45.5t22 -39.5
t36 -27.5t50.5 -10.5q23 0 41 7v149h265v-386l-90 57q-40 -32 -92.5 -50t-124.5 -18q-80 0 -147 27.5t-115 76t-75 115.5t-27 145z" />
    <glyph glyph-name="uni0122" unicode="&#x122;" horiz-adv-x="721" 
d="M290 -111q0 30 22 51.5t52 21.5t51.5 -21.5t21.5 -51.5q0 -7 -1 -13.5t-3 -11.5l-28 -96h-72l12 50q-23 5 -39 25t-16 46zM23 350q0 74 28 139t76 113.5t113 76.5t139 28q13 0 30 -0.5t29 -2.5v-238h-51q-24 0 -44.5 -9.5t-36.5 -25t-25 -36.5t-9 -45q0 -23 7.5 -45.5
t22 -39.5t36 -27.5t50.5 -10.5q23 0 41 7v149h265v-386l-90 57q-40 -32 -92.5 -50t-124.5 -18q-80 0 -147 27.5t-115 76t-75 115.5t-27 145z" />
    <glyph glyph-name="uni0123" unicode="&#x123;" horiz-adv-x="721" 
d="M290 -111q0 30 22 51.5t52 21.5t51.5 -21.5t21.5 -51.5q0 -7 -1 -13.5t-3 -11.5l-28 -96h-72l12 50q-23 5 -39 25t-16 46zM23 350q0 74 28 139t76 113.5t113 76.5t139 28q13 0 30 -0.5t29 -2.5v-238h-51q-24 0 -44.5 -9.5t-36.5 -25t-25 -36.5t-9 -45q0 -23 7.5 -45.5
t22 -39.5t36 -27.5t50.5 -10.5q23 0 41 7v149h265v-386l-90 57q-40 -32 -92.5 -50t-124.5 -18q-80 0 -147 27.5t-115 76t-75 115.5t-27 145z" />
    <glyph glyph-name="Hcircumflex" unicode="&#x124;" horiz-adv-x="742" 
d="M316 888h110l77 -138h-81l-51 64l-51 -64h-81zM310 700v-236h122v236h260v-700h-260v235h-122v-235h-260v700h260z" />
    <glyph glyph-name="hcircumflex" unicode="&#x125;" horiz-adv-x="742" 
d="M316 888h110l77 -138h-81l-51 64l-51 -64h-81zM310 700v-236h122v236h260v-700h-260v235h-122v-235h-260v700h260z" />
    <glyph glyph-name="Hbar" unicode="&#x126;" horiz-adv-x="742" 
d="M310 700v-94h122v94h260v-94h50v-74h-50v-532h-260v235h-122v-235h-260v532h-50v74h50v94h260zM432 464v68h-122v-68h122z" />
    <glyph glyph-name="hbar" unicode="&#x127;" horiz-adv-x="742" 
d="M310 700v-94h122v94h260v-94h50v-74h-50v-532h-260v235h-122v-235h-260v532h-50v74h50v94h260zM432 464v68h-122v-68h122z" />
    <glyph glyph-name="Itilde" unicode="&#x128;" horiz-adv-x="360" 
d="M226 767q-18 0 -29.5 4t-21.5 9.5t-19 9.5t-22 4q-18 0 -32.5 -6.5t-31.5 -26.5v78q8 11 25.5 20.5t38.5 9.5q17 0 29 -4t21.5 -8.5t18.5 -8.5t21 -4q19 0 34 5.5t32 24.5v-75q-8 -11 -26 -21.5t-38 -10.5zM50 0v700h260v-700h-260z" />
    <glyph glyph-name="itilde" unicode="&#x129;" horiz-adv-x="360" 
d="M226 767q-18 0 -29.5 4t-21.5 9.5t-19 9.5t-22 4q-18 0 -32.5 -6.5t-31.5 -26.5v78q8 11 25.5 20.5t38.5 9.5q17 0 29 -4t21.5 -8.5t18.5 -8.5t21 -4q19 0 34 5.5t32 24.5v-75q-8 -11 -26 -21.5t-38 -10.5zM50 0v700h260v-700h-260z" />
    <glyph glyph-name="Imacron" unicode="&#x12a;" horiz-adv-x="360" 
d="M74 858h212v-78h-212v78zM50 0v700h260v-700h-260z" />
    <glyph glyph-name="imacron" unicode="&#x12b;" horiz-adv-x="360" 
d="M74 858h212v-78h-212v78zM50 0v700h260v-700h-260z" />
    <glyph glyph-name="Iogonek" unicode="&#x12e;" horiz-adv-x="360" 
d="M222 0q-20 -24 -26 -38.5t-6 -31.5t9 -29.5t32 -12.5q9 0 21 4t21 13v-59q-11 -11 -29 -17t-46 -6q-42 0 -68 20t-26 58q0 12 4.5 26t13 28t20 25.5t26.5 19.5h-118v700h260v-700h-88z" />
    <glyph glyph-name="iogonek" unicode="&#x12f;" horiz-adv-x="360" 
d="M222 0q-20 -24 -26 -38.5t-6 -31.5t9 -29.5t32 -12.5q9 0 21 4t21 13v-59q-11 -11 -29 -17t-46 -6q-42 0 -68 20t-26 58q0 12 4.5 26t13 28t20 25.5t26.5 19.5h-118v700h260v-700h-88z" />
    <glyph glyph-name="Idotaccent" unicode="&#x130;" horiz-adv-x="360" 
d="M119 819q0 26 17.5 43.5t43.5 17.5t43.5 -17.5t17.5 -43.5t-17.5 -43.5t-43.5 -17.5t-43.5 17.5t-17.5 43.5zM50 0v700h260v-700h-260z" />
    <glyph glyph-name="dotlessi" unicode="&#x131;" horiz-adv-x="360" 
d="M50 0v700h260v-700h-260z" />
    <glyph glyph-name="Jcircumflex" unicode="&#x134;" horiz-adv-x="455" 
d="M233 888h110l77 -138h-81l-51 64l-51 -64h-81zM24 233q12 -2 24 -3t24 -1q51 0 68.5 28t17.5 82v361h260v-418q0 -140 -77.5 -216t-215.5 -76q-29 0 -55.5 1.5t-45.5 8.5v233z" />
    <glyph glyph-name="jcircumflex" unicode="&#x135;" horiz-adv-x="455" 
d="M233 888h110l77 -138h-81l-51 64l-51 -64h-81zM24 233q12 -2 24 -3t24 -1q51 0 68.5 28t17.5 82v361h260v-418q0 -140 -77.5 -216t-215.5 -76q-29 0 -55.5 1.5t-45.5 8.5v233z" />
    <glyph glyph-name="uni0136" unicode="&#x136;" horiz-adv-x="720" 
d="M261 -111q0 30 22 51.5t52 21.5t51.5 -21.5t21.5 -51.5q0 -7 -1 -13.5t-3 -11.5l-28 -96h-72l12 50q-23 5 -39 25t-16 46zM50 0v700h260v-213l95 213h274l-196 -365l227 -335h-317l-83 149v-149h-260z" />
    <glyph glyph-name="uni0137" unicode="&#x137;" horiz-adv-x="720" 
d="M261 -111q0 30 22 51.5t52 21.5t51.5 -21.5t21.5 -51.5q0 -7 -1 -13.5t-3 -11.5l-28 -96h-72l12 50q-23 5 -39 25t-16 46zM50 0v700h260v-213l95 213h274l-196 -365l227 -335h-317l-83 149v-149h-260z" />
    <glyph glyph-name="Lacute" unicode="&#x139;" horiz-adv-x="520" 
d="M291 888l-88 -138h-82l41 138h129zM50 700h260v-465h186v-235h-446v700z" />
    <glyph glyph-name="lacute" unicode="&#x13a;" horiz-adv-x="520" 
d="M291 888l-88 -138h-82l41 138h129zM50 700h260v-465h186v-235h-446v700z" />
    <glyph glyph-name="uni013B" unicode="&#x13b;" horiz-adv-x="520" 
d="M190 -111q0 30 22 51.5t52 21.5t51.5 -21.5t21.5 -51.5q0 -7 -1 -13.5t-3 -11.5l-28 -96h-72l12 50q-23 5 -39 25t-16 46zM50 700h260v-465h186v-235h-446v700z" />
    <glyph glyph-name="uni013C" unicode="&#x13c;" horiz-adv-x="520" 
d="M190 -111q0 30 22 51.5t52 21.5t51.5 -21.5t21.5 -51.5q0 -7 -1 -13.5t-3 -11.5l-28 -96h-72l12 50q-23 5 -39 25t-16 46zM50 700h260v-465h186v-235h-446v700z" />
    <glyph glyph-name="Lcaron" unicode="&#x13d;" horiz-adv-x="536" 
d="M368 641q0 30 22 51.5t52 21.5t51.5 -21.5t21.5 -51.5q0 -7 -1 -13.5t-3 -11.5l-28 -96h-72l12 50q-23 5 -39 25t-16 46zM50 700h260v-465h186v-235h-446v700z" />
    <glyph glyph-name="lcaron" unicode="&#x13e;" horiz-adv-x="536" 
d="M368 641q0 30 22 51.5t52 21.5t51.5 -21.5t21.5 -51.5q0 -7 -1 -13.5t-3 -11.5l-28 -96h-72l12 50q-23 5 -39 25t-16 46zM50 700h260v-465h186v-235h-446v700z" />
    <glyph glyph-name="Lslash" unicode="&#x141;" horiz-adv-x="520" 
d="M0 307l50 25v368h260v-237l96 49v-89l-96 -49v-139h186v-235h-446v243l-50 -25v89z" />
    <glyph glyph-name="lslash" unicode="&#x142;" horiz-adv-x="520" 
d="M0 307l50 25v368h260v-237l96 49v-89l-96 -49v-139h186v-235h-446v243l-50 -25v89z" />
    <glyph glyph-name="Nacute" unicode="&#x143;" horiz-adv-x="728" 
d="M474 888l-88 -138h-82l41 138h129zM418 0v296l-108 46v-342h-260v720l368 -152v132h260v-700h-260z" />
    <glyph glyph-name="nacute" unicode="&#x144;" horiz-adv-x="728" 
d="M474 888l-88 -138h-82l41 138h129zM418 0v296l-108 46v-342h-260v720l368 -152v132h260v-700h-260z" />
    <glyph glyph-name="uni0145" unicode="&#x145;" horiz-adv-x="728" 
d="M290 -111q0 30 22 51.5t52 21.5t51.5 -21.5t21.5 -51.5q0 -7 -1 -13.5t-3 -11.5l-28 -96h-72l12 50q-23 5 -39 25t-16 46zM418 0v296l-108 46v-342h-260v720l368 -152v132h260v-700h-260z" />
    <glyph glyph-name="uni0146" unicode="&#x146;" horiz-adv-x="728" 
d="M290 -111q0 30 22 51.5t52 21.5t51.5 -21.5t21.5 -51.5q0 -7 -1 -13.5t-3 -11.5l-28 -96h-72l12 50q-23 5 -39 25t-16 46zM418 0v296l-108 46v-342h-260v720l368 -152v132h260v-700h-260z" />
    <glyph glyph-name="Ncaron" unicode="&#x147;" horiz-adv-x="728" 
d="M419 750h-110l-77 138h81l51 -64l51 64h81zM418 0v296l-108 46v-342h-260v720l368 -152v132h260v-700h-260z" />
    <glyph glyph-name="ncaron" unicode="&#x148;" horiz-adv-x="728" 
d="M419 750h-110l-77 138h81l51 -64l51 64h81zM418 0v296l-108 46v-342h-260v720l368 -152v132h260v-700h-260z" />
    <glyph glyph-name="Omacron" unicode="&#x14c;" horiz-adv-x="776" 
d="M282 858h212v-78h-212v78zM388 473q-29 0 -50.5 -10.5t-36 -28t-22 -39.5t-7.5 -45t7.5 -45.5t22 -39.5t36 -27.5t50.5 -10.5q28 0 50 10.5t36.5 27.5t22 39.5t7.5 45.5t-7.5 45t-22 39.5t-36.5 28t-50 10.5zM388 -14q-80 0 -147 27.5t-115.5 76t-75.5 115.5t-27 145
q0 73 27 139t75.5 116t115.5 79.5t147 29.5t147 -29.5t115.5 -79.5t75.5 -116t27 -139q0 -78 -27 -145t-75.5 -115.5t-115.5 -76t-147 -27.5z" />
    <glyph glyph-name="omacron" unicode="&#x14d;" horiz-adv-x="776" 
d="M282 858h212v-78h-212v78zM388 473q-29 0 -50.5 -10.5t-36 -28t-22 -39.5t-7.5 -45t7.5 -45.5t22 -39.5t36 -27.5t50.5 -10.5q28 0 50 10.5t36.5 27.5t22 39.5t7.5 45.5t-7.5 45t-22 39.5t-36.5 28t-50 10.5zM388 -14q-80 0 -147 27.5t-115.5 76t-75.5 115.5t-27 145
q0 73 27 139t75.5 116t115.5 79.5t147 29.5t147 -29.5t115.5 -79.5t75.5 -116t27 -139q0 -78 -27 -145t-75.5 -115.5t-115.5 -76t-147 -27.5z" />
    <glyph glyph-name="Ohungarumlaut" unicode="&#x150;" horiz-adv-x="776" 
d="M583 888l-88 -138h-82l41 138h129zM413 888l-88 -138h-82l41 138h129zM388 473q-29 0 -50.5 -10.5t-36 -28t-22 -39.5t-7.5 -45t7.5 -45.5t22 -39.5t36 -27.5t50.5 -10.5q28 0 50 10.5t36.5 27.5t22 39.5t7.5 45.5t-7.5 45t-22 39.5t-36.5 28t-50 10.5zM388 -14
q-80 0 -147 27.5t-115.5 76t-75.5 115.5t-27 145q0 73 27 139t75.5 116t115.5 79.5t147 29.5t147 -29.5t115.5 -79.5t75.5 -116t27 -139q0 -78 -27 -145t-75.5 -115.5t-115.5 -76t-147 -27.5z" />
    <glyph glyph-name="ohungarumlaut" unicode="&#x151;" horiz-adv-x="776" 
d="M583 888l-88 -138h-82l41 138h129zM413 888l-88 -138h-82l41 138h129zM388 473q-29 0 -50.5 -10.5t-36 -28t-22 -39.5t-7.5 -45t7.5 -45.5t22 -39.5t36 -27.5t50.5 -10.5q28 0 50 10.5t36.5 27.5t22 39.5t7.5 45.5t-7.5 45t-22 39.5t-36.5 28t-50 10.5zM388 -14
q-80 0 -147 27.5t-115.5 76t-75.5 115.5t-27 145q0 73 27 139t75.5 116t115.5 79.5t147 29.5t147 -29.5t115.5 -79.5t75.5 -116t27 -139q0 -78 -27 -145t-75.5 -115.5t-115.5 -76t-147 -27.5z" />
    <glyph glyph-name="OE" unicode="&#x152;" horiz-adv-x="859" 
d="M393 0q-85 0 -153.5 26.5t-116.5 73t-74 110.5t-26 140t26 140t74 110.5t116.5 73t153.5 26.5h419v-235h-59v-230h59v-235h-419zM272 350q0 -49 20.5 -82t50.5 -33q14 0 23 12v205q-4 5 -9.5 9t-13.5 4q-30 0 -50.5 -33t-20.5 -82zM753 235h-127v80zM753 465h-127v-81z
" />
    <glyph glyph-name="oe" unicode="&#x153;" horiz-adv-x="859" 
d="M393 0q-85 0 -153.5 26.5t-116.5 73t-74 110.5t-26 140t26 140t74 110.5t116.5 73t153.5 26.5h419v-235h-59v-230h59v-235h-419zM272 350q0 -49 20.5 -82t50.5 -33q14 0 23 12v205q-4 5 -9.5 9t-13.5 4q-30 0 -50.5 -33t-20.5 -82zM753 235h-127v80zM753 465h-127v-81z
" />
    <glyph glyph-name="Racute" unicode="&#x154;" 
d="M428 888l-88 -138h-82l41 138h129zM50 0v700h213q75 0 142.5 -12.5t118 -45t80.5 -89.5t30 -146q0 -23 -4.5 -49.5t-15 -53t-28.5 -53t-45 -49.5l121 -202h-276l-76 152v-152h-260zM328 482q-8 0 -12 -3t-6 -5v-105q5 -6 11.5 -7.5t14.5 -1.5q20 0 34 19t14 42
q0 24 -16.5 42.5t-39.5 18.5z" />
    <glyph glyph-name="racute" unicode="&#x155;" 
d="M428 888l-88 -138h-82l41 138h129zM50 0v700h213q75 0 142.5 -12.5t118 -45t80.5 -89.5t30 -146q0 -23 -4.5 -49.5t-15 -53t-28.5 -53t-45 -49.5l121 -202h-276l-76 152v-152h-260zM328 482q-8 0 -12 -3t-6 -5v-105q5 -6 11.5 -7.5t14.5 -1.5q20 0 34 19t14 42
q0 24 -16.5 42.5t-39.5 18.5z" />
    <glyph glyph-name="uni0156" unicode="&#x156;" 
d="M260 -111q0 30 22 51.5t52 21.5t51.5 -21.5t21.5 -51.5q0 -7 -1 -13.5t-3 -11.5l-28 -96h-72l12 50q-23 5 -39 25t-16 46zM50 0v700h213q75 0 142.5 -12.5t118 -45t80.5 -89.5t30 -146q0 -23 -4.5 -49.5t-15 -53t-28.5 -53t-45 -49.5l121 -202h-276l-76 152v-152h-260z
M328 482q-8 0 -12 -3t-6 -5v-105q5 -6 11.5 -7.5t14.5 -1.5q20 0 34 19t14 42q0 24 -16.5 42.5t-39.5 18.5z" />
    <glyph glyph-name="uni0157" unicode="&#x157;" 
d="M260 -111q0 30 22 51.5t52 21.5t51.5 -21.5t21.5 -51.5q0 -7 -1 -13.5t-3 -11.5l-28 -96h-72l12 50q-23 5 -39 25t-16 46zM50 0v700h213q75 0 142.5 -12.5t118 -45t80.5 -89.5t30 -146q0 -23 -4.5 -49.5t-15 -53t-28.5 -53t-45 -49.5l121 -202h-276l-76 152v-152h-260z
M328 482q-8 0 -12 -3t-6 -5v-105q5 -6 11.5 -7.5t14.5 -1.5q20 0 34 19t14 42q0 24 -16.5 42.5t-39.5 18.5z" />
    <glyph glyph-name="Rcaron" unicode="&#x158;" 
d="M373 750h-110l-77 138h81l51 -64l51 64h81zM50 0v700h213q75 0 142.5 -12.5t118 -45t80.5 -89.5t30 -146q0 -23 -4.5 -49.5t-15 -53t-28.5 -53t-45 -49.5l121 -202h-276l-76 152v-152h-260zM328 482q-8 0 -12 -3t-6 -5v-105q5 -6 11.5 -7.5t14.5 -1.5q20 0 34 19t14 42
q0 24 -16.5 42.5t-39.5 18.5z" />
    <glyph glyph-name="rcaron" unicode="&#x159;" 
d="M373 750h-110l-77 138h81l51 -64l51 64h81zM50 0v700h213q75 0 142.5 -12.5t118 -45t80.5 -89.5t30 -146q0 -23 -4.5 -49.5t-15 -53t-28.5 -53t-45 -49.5l121 -202h-276l-76 152v-152h-260zM328 482q-8 0 -12 -3t-6 -5v-105q5 -6 11.5 -7.5t14.5 -1.5q20 0 34 19t14 42
q0 24 -16.5 42.5t-39.5 18.5z" />
    <glyph glyph-name="Sacute" unicode="&#x15a;" horiz-adv-x="546" 
d="M476 888l-88 -138h-82l41 138h129zM503 468q-36 0 -57 -20.5t-33.5 -54t-20.5 -76.5t-19 -87.5t-29 -87.5t-50 -76.5t-81.5 -54t-124.5 -20.5q-15 0 -37.5 2t-38.5 7v235q16 -3 30 -3q36 0 57 20.5t33.5 54t20.5 76.5t19.5 87.5t29.5 87.5t50 76.5t81.5 54t124.5 20.5
q14 0 37 -2t39 -7v-235q-17 3 -31 3z" />
    <glyph glyph-name="sacute" unicode="&#x15b;" horiz-adv-x="546" 
d="M476 888l-88 -138h-82l41 138h129zM503 468q-36 0 -57 -20.5t-33.5 -54t-20.5 -76.5t-19 -87.5t-29 -87.5t-50 -76.5t-81.5 -54t-124.5 -20.5q-15 0 -37.5 2t-38.5 7v235q16 -3 30 -3q36 0 57 20.5t33.5 54t20.5 76.5t19.5 87.5t29.5 87.5t50 76.5t81.5 54t124.5 20.5
q14 0 37 -2t39 -7v-235q-17 3 -31 3z" />
    <glyph glyph-name="Scircumflex" unicode="&#x15c;" horiz-adv-x="546" 
d="M311 888h110l77 -138h-81l-51 64l-51 -64h-81zM503 468q-36 0 -57 -20.5t-33.5 -54t-20.5 -76.5t-19 -87.5t-29 -87.5t-50 -76.5t-81.5 -54t-124.5 -20.5q-15 0 -37.5 2t-38.5 7v235q16 -3 30 -3q36 0 57 20.5t33.5 54t20.5 76.5t19.5 87.5t29.5 87.5t50 76.5t81.5 54
t124.5 20.5q14 0 37 -2t39 -7v-235q-17 3 -31 3z" />
    <glyph glyph-name="scircumflex" unicode="&#x15d;" horiz-adv-x="546" 
d="M311 888h110l77 -138h-81l-51 64l-51 -64h-81zM503 468q-36 0 -57 -20.5t-33.5 -54t-20.5 -76.5t-19 -87.5t-29 -87.5t-50 -76.5t-81.5 -54t-124.5 -20.5q-15 0 -37.5 2t-38.5 7v235q16 -3 30 -3q36 0 57 20.5t33.5 54t20.5 76.5t19.5 87.5t29.5 87.5t50 76.5t81.5 54
t124.5 20.5q14 0 37 -2t39 -7v-235q-17 3 -31 3z" />
    <glyph glyph-name="Scedilla" unicode="&#x15e;" horiz-adv-x="546" 
d="M503 468q-33 0 -53 -17t-32.5 -45.5t-20.5 -66t-17 -78t-21.5 -81t-34.5 -75.5t-55.5 -62.5t-85.5 -40.5l-17 -54q5 1 10 1.5t10 0.5q29 0 45.5 -15t16.5 -39q0 -33 -26.5 -53t-63.5 -20q-29 0 -45.5 3t-32.5 10v55q15 -10 35 -10q11 0 19.5 3.5t8.5 11.5q0 11 -11.5 14
t-32.5 3l23 80q-8 -1 -16.5 -1.5t-17.5 -0.5q-15 0 -37.5 2t-38.5 7v235q16 -3 30 -3q36 0 57 20.5t33.5 54t20.5 76.5t19.5 87.5t29.5 87.5t50 76.5t81.5 54t124.5 20.5q14 0 37 -2t39 -7v-235q-17 3 -31 3z" />
    <glyph glyph-name="scedilla" unicode="&#x15f;" horiz-adv-x="546" 
d="M503 468q-33 0 -53 -17t-32.5 -45.5t-20.5 -66t-17 -78t-21.5 -81t-34.5 -75.5t-55.5 -62.5t-85.5 -40.5l-17 -54q5 1 10 1.5t10 0.5q29 0 45.5 -15t16.5 -39q0 -33 -26.5 -53t-63.5 -20q-29 0 -45.5 3t-32.5 10v55q15 -10 35 -10q11 0 19.5 3.5t8.5 11.5q0 11 -11.5 14
t-32.5 3l23 80q-8 -1 -16.5 -1.5t-17.5 -0.5q-15 0 -37.5 2t-38.5 7v235q16 -3 30 -3q36 0 57 20.5t33.5 54t20.5 76.5t19.5 87.5t29.5 87.5t50 76.5t81.5 54t124.5 20.5q14 0 37 -2t39 -7v-235q-17 3 -31 3z" />
    <glyph glyph-name="Scaron" unicode="&#x160;" horiz-adv-x="546" 
d="M421 750h-110l-77 138h81l51 -64l51 64h81zM503 468q-36 0 -57 -20.5t-33.5 -54t-20.5 -76.5t-19 -87.5t-29 -87.5t-50 -76.5t-81.5 -54t-124.5 -20.5q-15 0 -37.5 2t-38.5 7v235q16 -3 30 -3q36 0 57 20.5t33.5 54t20.5 76.5t19.5 87.5t29.5 87.5t50 76.5t81.5 54
t124.5 20.5q14 0 37 -2t39 -7v-235q-17 3 -31 3z" />
    <glyph glyph-name="scaron" unicode="&#x161;" horiz-adv-x="546" 
d="M421 750h-110l-77 138h81l51 -64l51 64h81zM503 468q-36 0 -57 -20.5t-33.5 -54t-20.5 -76.5t-19 -87.5t-29 -87.5t-50 -76.5t-81.5 -54t-124.5 -20.5q-15 0 -37.5 2t-38.5 7v235q16 -3 30 -3q36 0 57 20.5t33.5 54t20.5 76.5t19.5 87.5t29.5 87.5t50 76.5t81.5 54
t124.5 20.5q14 0 37 -2t39 -7v-235q-17 3 -31 3z" />
    <glyph glyph-name="uni0162" unicode="&#x162;" horiz-adv-x="586" 
d="M219 -111q0 30 22 51.5t52 21.5t51.5 -21.5t21.5 -51.5q0 -7 -1 -13.5t-3 -11.5l-28 -96h-72l12 50q-23 5 -39 25t-16 46zM163 0v465h-139v235h538v-235h-139v-465h-260z" />
    <glyph glyph-name="uni0163" unicode="&#x163;" horiz-adv-x="586" 
d="M219 -111q0 30 22 51.5t52 21.5t51.5 -21.5t21.5 -51.5q0 -7 -1 -13.5t-3 -11.5l-28 -96h-72l12 50q-23 5 -39 25t-16 46zM163 0v465h-139v235h538v-235h-139v-465h-260z" />
    <glyph glyph-name="Tcaron" unicode="&#x164;" horiz-adv-x="586" 
d="M348 750h-110l-77 138h81l51 -64l51 64h81zM163 0v465h-139v235h538v-235h-139v-465h-260z" />
    <glyph glyph-name="tcaron" unicode="&#x165;" horiz-adv-x="586" 
d="M348 750h-110l-77 138h81l51 -64l51 64h81zM163 0v465h-139v235h538v-235h-139v-465h-260z" />
    <glyph glyph-name="Tbar" unicode="&#x166;" horiz-adv-x="586" 
d="M92 378h71v87h-139v235h538v-235h-139v-87h70v-74h-70v-304h-260v304h-71v74z" />
    <glyph glyph-name="tbar" unicode="&#x167;" horiz-adv-x="586" 
d="M92 378h71v87h-139v235h538v-235h-139v-87h70v-74h-70v-304h-260v304h-71v74z" />
    <glyph glyph-name="Utilde" unicode="&#x168;" 
d="M384 767q-18 0 -29.5 4t-21.5 9.5t-19 9.5t-22 4q-18 0 -32.5 -6.5t-31.5 -26.5v78q8 11 25.5 20.5t38.5 9.5q17 0 29 -4t21.5 -8.5t18.5 -8.5t21 -4q19 0 34 5.5t32 24.5v-75q-8 -11 -26 -21.5t-38 -10.5zM37 700h260v-423q0 -17 10.5 -31.5t30.5 -14.5t31 14.5t11 31.5
v423h260v-426q0 -61 -21 -113t-60 -90t-95 -59.5t-126 -21.5t-126 21.5t-95 59.5t-59.5 90t-20.5 113v426z" />
    <glyph glyph-name="utilde" unicode="&#x169;" 
d="M384 767q-18 0 -29.5 4t-21.5 9.5t-19 9.5t-22 4q-18 0 -32.5 -6.5t-31.5 -26.5v78q8 11 25.5 20.5t38.5 9.5q17 0 29 -4t21.5 -8.5t18.5 -8.5t21 -4q19 0 34 5.5t32 24.5v-75q-8 -11 -26 -21.5t-38 -10.5zM37 700h260v-423q0 -17 10.5 -31.5t30.5 -14.5t31 14.5t11 31.5
v423h260v-426q0 -61 -21 -113t-60 -90t-95 -59.5t-126 -21.5t-126 21.5t-95 59.5t-59.5 90t-20.5 113v426z" />
    <glyph glyph-name="Umacron" unicode="&#x16a;" 
d="M232 858h212v-78h-212v78zM37 700h260v-423q0 -17 10.5 -31.5t30.5 -14.5t31 14.5t11 31.5v423h260v-426q0 -61 -21 -113t-60 -90t-95 -59.5t-126 -21.5t-126 21.5t-95 59.5t-59.5 90t-20.5 113v426z" />
    <glyph glyph-name="umacron" unicode="&#x16b;" 
d="M232 858h212v-78h-212v78zM37 700h260v-423q0 -17 10.5 -31.5t30.5 -14.5t31 14.5t11 31.5v423h260v-426q0 -61 -21 -113t-60 -90t-95 -59.5t-126 -21.5t-126 21.5t-95 59.5t-59.5 90t-20.5 113v426z" />
    <glyph glyph-name="Ubreve" unicode="&#x16c;" 
d="M339 823q18 0 29.5 10t11.5 37v12h69q1 -7 1 -12.5v-11.5q0 -35 -11 -57.5t-27.5 -35.5t-36 -18.5t-36.5 -5.5q-18 0 -37.5 5.5t-36 18.5t-27.5 35.5t-11 57.5v11.5t1 12.5h69v-10q0 -28 11 -38.5t31 -10.5zM37 700h260v-423q0 -17 10.5 -31.5t30.5 -14.5t31 14.5
t11 31.5v423h260v-426q0 -61 -21 -113t-60 -90t-95 -59.5t-126 -21.5t-126 21.5t-95 59.5t-59.5 90t-20.5 113v426z" />
    <glyph glyph-name="ubreve" unicode="&#x16d;" 
d="M339 823q18 0 29.5 10t11.5 37v12h69q1 -7 1 -12.5v-11.5q0 -35 -11 -57.5t-27.5 -35.5t-36 -18.5t-36.5 -5.5q-18 0 -37.5 5.5t-36 18.5t-27.5 35.5t-11 57.5v11.5t1 12.5h69v-10q0 -28 11 -38.5t31 -10.5zM37 700h260v-423q0 -17 10.5 -31.5t30.5 -14.5t31 14.5
t11 31.5v423h260v-426q0 -61 -21 -113t-60 -90t-95 -59.5t-126 -21.5t-126 21.5t-95 59.5t-59.5 90t-20.5 113v426z" />
    <glyph glyph-name="Uring" unicode="&#x16e;" 
d="M262 819q0 31 22 52.5t54 21.5t54.5 -21.5t22.5 -52.5t-22.5 -52.5t-54.5 -21.5t-54 21.5t-22 52.5zM312 819q0 -13 7.5 -20.5t18.5 -7.5q12 0 19.5 7.5t7.5 20.5t-7.5 21t-19.5 8q-11 0 -18.5 -8t-7.5 -21zM37 700h260v-423q0 -17 10.5 -31.5t30.5 -14.5t31 14.5
t11 31.5v423h260v-426q0 -61 -21 -113t-60 -90t-95 -59.5t-126 -21.5t-126 21.5t-95 59.5t-59.5 90t-20.5 113v426z" />
    <glyph glyph-name="uring" unicode="&#x16f;" 
d="M262 819q0 31 22 52.5t54 21.5t54.5 -21.5t22.5 -52.5t-22.5 -52.5t-54.5 -21.5t-54 21.5t-22 52.5zM312 819q0 -13 7.5 -20.5t18.5 -7.5q12 0 19.5 7.5t7.5 20.5t-7.5 21t-19.5 8q-11 0 -18.5 -8t-7.5 -21zM37 700h260v-423q0 -17 10.5 -31.5t30.5 -14.5t31 14.5
t11 31.5v423h260v-426q0 -61 -21 -113t-60 -90t-95 -59.5t-126 -21.5t-126 21.5t-95 59.5t-59.5 90t-20.5 113v426z" />
    <glyph glyph-name="Uhungarumlaut" unicode="&#x170;" 
d="M533 888l-88 -138h-82l41 138h129zM363 888l-88 -138h-82l41 138h129zM37 700h260v-423q0 -17 10.5 -31.5t30.5 -14.5t31 14.5t11 31.5v423h260v-426q0 -61 -21 -113t-60 -90t-95 -59.5t-126 -21.5t-126 21.5t-95 59.5t-59.5 90t-20.5 113v426z" />
    <glyph glyph-name="uhungarumlaut" unicode="&#x171;" 
d="M533 888l-88 -138h-82l41 138h129zM363 888l-88 -138h-82l41 138h129zM37 700h260v-423q0 -17 10.5 -31.5t30.5 -14.5t31 14.5t11 31.5v423h260v-426q0 -61 -21 -113t-60 -90t-95 -59.5t-126 -21.5t-126 21.5t-95 59.5t-59.5 90t-20.5 113v426z" />
    <glyph glyph-name="Uogonek" unicode="&#x172;" 
d="M485 20q-26 -32 -34.5 -52.5t-8.5 -37.5t9 -29.5t32 -12.5q9 0 21 4t21 13v-59q-11 -11 -29 -17t-46 -6q-42 0 -68 20t-26 58q0 12 4.5 26t12 27.5t18.5 25t24 18.5q-38 -8 -77 -8q-70 0 -126 21.5t-95 59.5t-59.5 90t-20.5 113v426h260v-423q0 -17 10.5 -31.5
t30.5 -14.5t31 14.5t11 31.5v423h260v-426q0 -86 -40.5 -152.5t-114.5 -101.5z" />
    <glyph glyph-name="uogonek" unicode="&#x173;" 
d="M485 20q-26 -32 -34.5 -52.5t-8.5 -37.5t9 -29.5t32 -12.5q9 0 21 4t21 13v-59q-11 -11 -29 -17t-46 -6q-42 0 -68 20t-26 58q0 12 4.5 26t12 27.5t18.5 25t24 18.5q-38 -8 -77 -8q-70 0 -126 21.5t-95 59.5t-59.5 90t-20.5 113v426h260v-423q0 -17 10.5 -31.5
t30.5 -14.5t31 14.5t11 31.5v423h260v-426q0 -86 -40.5 -152.5t-114.5 -101.5z" />
    <glyph glyph-name="Wcircumflex" unicode="&#x174;" horiz-adv-x="950" 
d="M420 888h110l77 -138h-81l-51 64l-51 -64h-81zM475 700l96 -164l81 164h296l-342 -720l-131 307l-131 -307l-342 720h296l81 -164z" />
    <glyph glyph-name="wcircumflex" unicode="&#x175;" horiz-adv-x="950" 
d="M420 888h110l77 -138h-81l-51 64l-51 -64h-81zM475 700l96 -164l81 164h296l-342 -720l-131 307l-131 -307l-342 720h296l81 -164z" />
    <glyph glyph-name="Ycircumflex" unicode="&#x176;" horiz-adv-x="765" 
d="M327 888h110l77 -138h-81l-51 64l-51 -64h-81zM252 0v239l-252 461h286l96 -190l97 190h286l-253 -463v-237h-260z" />
    <glyph glyph-name="ycircumflex" unicode="&#x177;" horiz-adv-x="765" 
d="M327 888h110l77 -138h-81l-51 64l-51 -64h-81zM252 0v239l-252 461h286l96 -190l97 190h286l-253 -463v-237h-260z" />
    <glyph glyph-name="Ydieresis" unicode="&#x178;" horiz-adv-x="765" 
d="M238 819q0 26 17.5 43.5t43.5 17.5t43.5 -17.5t17.5 -43.5t-17.5 -43.5t-43.5 -17.5t-43.5 17.5t-17.5 43.5zM405 819q0 26 17.5 43.5t43.5 17.5t43.5 -17.5t17.5 -43.5t-17.5 -43.5t-43.5 -17.5t-43.5 17.5t-17.5 43.5zM252 0v239l-252 461h286l96 -190l97 190h286
l-253 -463v-237h-260z" />
    <glyph glyph-name="Zacute" unicode="&#x179;" horiz-adv-x="647" 
d="M433 888l-88 -138h-82l41 138h129zM606 235v-235h-580l218 465h-203v235h580l-219 -465h204z" />
    <glyph glyph-name="zacute" unicode="&#x17a;" horiz-adv-x="647" 
d="M433 888l-88 -138h-82l41 138h129zM606 235v-235h-580l218 465h-203v235h580l-219 -465h204z" />
    <glyph glyph-name="Zdotaccent" unicode="&#x17b;" horiz-adv-x="647" 
d="M262 819q0 26 17.5 43.5t43.5 17.5t43.5 -17.5t17.5 -43.5t-17.5 -43.5t-43.5 -17.5t-43.5 17.5t-17.5 43.5zM606 235v-235h-580l218 465h-203v235h580l-219 -465h204z" />
    <glyph glyph-name="zdotaccent" unicode="&#x17c;" horiz-adv-x="647" 
d="M262 819q0 26 17.5 43.5t43.5 17.5t43.5 -17.5t17.5 -43.5t-17.5 -43.5t-43.5 -17.5t-43.5 17.5t-17.5 43.5zM606 235v-235h-580l218 465h-203v235h580l-219 -465h204z" />
    <glyph glyph-name="Zcaron" unicode="&#x17d;" horiz-adv-x="647" 
d="M378 750h-110l-77 138h81l51 -64l51 64h81zM606 235v-235h-580l218 465h-203v235h580l-219 -465h204z" />
    <glyph glyph-name="zcaron" unicode="&#x17e;" horiz-adv-x="647" 
d="M378 750h-110l-77 138h81l51 -64l51 64h81zM606 235v-235h-580l218 465h-203v235h580l-219 -465h204z" />
    <glyph glyph-name="florin" unicode="&#x192;" horiz-adv-x="522" 
d="M40 348h51v66q0 148 65 220.5t213 72.5q28 0 58.5 -3t64.5 -13l-5 -233q-11 3 -23 6t-32 3q-38 0 -60 -20.5t-22 -63.5v-35h114v-39h-114v-74q0 -113 -53 -174t-156 -61h-101v235q51 0 51 47v27h-51v39z" />
    <glyph glyph-name="uni0218" unicode="&#x218;" horiz-adv-x="546" 
d="M106 -111q0 30 22 51.5t52 21.5t51.5 -21.5t21.5 -51.5q0 -7 -1 -13.5t-3 -11.5l-28 -96h-72l12 50q-23 5 -39 25t-16 46zM503 468q-36 0 -57 -20.5t-33.5 -54t-20.5 -76.5t-19 -87.5t-29 -87.5t-50 -76.5t-81.5 -54t-124.5 -20.5q-15 0 -37.5 2t-38.5 7v235q16 -3 30 -3
q36 0 57 20.5t33.5 54t20.5 76.5t19.5 87.5t29.5 87.5t50 76.5t81.5 54t124.5 20.5q14 0 37 -2t39 -7v-235q-17 3 -31 3z" />
    <glyph glyph-name="uni0219" unicode="&#x219;" horiz-adv-x="546" 
d="M106 -111q0 30 22 51.5t52 21.5t51.5 -21.5t21.5 -51.5q0 -7 -1 -13.5t-3 -11.5l-28 -96h-72l12 50q-23 5 -39 25t-16 46zM503 468q-36 0 -57 -20.5t-33.5 -54t-20.5 -76.5t-19 -87.5t-29 -87.5t-50 -76.5t-81.5 -54t-124.5 -20.5q-15 0 -37.5 2t-38.5 7v235q16 -3 30 -3
q36 0 57 20.5t33.5 54t20.5 76.5t19.5 87.5t29.5 87.5t50 76.5t81.5 54t124.5 20.5q14 0 37 -2t39 -7v-235q-17 3 -31 3z" />
    <glyph glyph-name="circumflex" unicode="&#x2c6;" horiz-adv-x="364" 
d="M127 888h110l77 -138h-81l-51 64l-51 -64h-81z" />
    <glyph glyph-name="caron" unicode="&#x2c7;" horiz-adv-x="364" 
d="M237 750h-110l-77 138h81l51 -64l51 64h81z" />
    <glyph glyph-name="breve" unicode="&#x2d8;" horiz-adv-x="325" 
d="M163 823q18 0 29.5 10t11.5 37v12h69q1 -7 1 -12.5v-11.5q0 -35 -11 -57.5t-27.5 -35.5t-36 -18.5t-36.5 -5.5q-18 0 -37.5 5.5t-36 18.5t-27.5 35.5t-11 57.5v11.5t1 12.5h69v-10q0 -28 11 -38.5t31 -10.5z" />
    <glyph glyph-name="dotaccent" unicode="&#x2d9;" horiz-adv-x="222" 
d="M50 819q0 26 17.5 43.5t43.5 17.5t43.5 -17.5t17.5 -43.5t-17.5 -43.5t-43.5 -17.5t-43.5 17.5t-17.5 43.5z" />
    <glyph glyph-name="ring" unicode="&#x2da;" horiz-adv-x="253" 
d="M50 819q0 31 22 52.5t54 21.5t54.5 -21.5t22.5 -52.5t-22.5 -52.5t-54.5 -21.5t-54 21.5t-22 52.5zM100 819q0 -13 7.5 -20.5t18.5 -7.5q12 0 19.5 7.5t7.5 20.5t-7.5 21t-19.5 8q-11 0 -18.5 -8t-7.5 -21z" />
    <glyph glyph-name="ogonek" unicode="&#x2db;" horiz-adv-x="277" 
d="M219 -154q-11 -11 -29 -17t-46 -6q-42 0 -68 20t-26 58q0 12 4.5 26t13 28t20 25.5t26.5 19.5h54q-20 -24 -26 -38.5t-6 -31.5t9 -29.5t32 -12.5q9 0 21 4t21 13v-59z" />
    <glyph glyph-name="tilde" unicode="&#x2dc;" horiz-adv-x="320" 
d="M206 767q-18 0 -29.5 4t-21.5 9.5t-19 9.5t-22 4q-18 0 -32.5 -6.5t-31.5 -26.5v78q8 11 25.5 20.5t38.5 9.5q17 0 29 -4t21.5 -8.5t18.5 -8.5t21 -4q19 0 34 5.5t32 24.5v-75q-8 -11 -26 -21.5t-38 -10.5z" />
    <glyph glyph-name="hungarumlaut" unicode="&#x2dd;" horiz-adv-x="440" 
d="M390 888l-88 -138h-82l41 138h129zM220 888l-88 -138h-82l41 138h129z" />
    <glyph glyph-name="uni1E02" unicode="&#x1e02;" horiz-adv-x="662" 
d="M264 819q0 26 17.5 43.5t43.5 17.5t43.5 -17.5t17.5 -43.5t-17.5 -43.5t-43.5 -17.5t-43.5 17.5t-17.5 43.5zM346 700q58 0 110 -10t91 -33.5t62 -63t23 -98.5q0 -92 -73 -145q73 -55 73 -145q0 -59 -23 -98.5t-62 -63t-91 -33.5t-110 -10h-296v700h296zM336 283
q-8 0 -14.5 -1t-11.5 -6v-83q2 -2 6 -4t12 -2q23 0 37.5 14.5t14.5 33.5q0 17 -12 32.5t-32 15.5zM310 424q5 -5 11.5 -6t14.5 -1q20 0 32 15.5t12 32.5q0 19 -14.5 33.5t-37.5 14.5q-8 0 -12 -2t-6 -4v-83z" />
    <glyph glyph-name="uni1E03" unicode="&#x1e03;" horiz-adv-x="662" 
d="M264 819q0 26 17.5 43.5t43.5 17.5t43.5 -17.5t17.5 -43.5t-17.5 -43.5t-43.5 -17.5t-43.5 17.5t-17.5 43.5zM346 700q58 0 110 -10t91 -33.5t62 -63t23 -98.5q0 -92 -73 -145q73 -55 73 -145q0 -59 -23 -98.5t-62 -63t-91 -33.5t-110 -10h-296v700h296zM336 283
q-8 0 -14.5 -1t-11.5 -6v-83q2 -2 6 -4t12 -2q23 0 37.5 14.5t14.5 33.5q0 17 -12 32.5t-32 15.5zM310 424q5 -5 11.5 -6t14.5 -1q20 0 32 15.5t12 32.5q0 19 -14.5 33.5t-37.5 14.5q-8 0 -12 -2t-6 -4v-83z" />
    <glyph glyph-name="uni1E0A" unicode="&#x1e0a;" horiz-adv-x="676" 
d="M261 819q0 26 17.5 43.5t43.5 17.5t43.5 -17.5t17.5 -43.5t-17.5 -43.5t-43.5 -17.5t-43.5 17.5t-17.5 43.5zM50 0v700h233q85 0 153.5 -26.5t116.5 -73t74 -110.5t26 -140t-26 -140t-74 -110.5t-116.5 -73t-153.5 -26.5h-233zM404 350q0 49 -20.5 82t-50.5 33
q-8 0 -13.5 -4t-9.5 -9v-205q9 -12 23 -12q30 0 50.5 33t20.5 82z" />
    <glyph glyph-name="uni1E0B" unicode="&#x1e0b;" horiz-adv-x="676" 
d="M261 819q0 26 17.5 43.5t43.5 17.5t43.5 -17.5t17.5 -43.5t-17.5 -43.5t-43.5 -17.5t-43.5 17.5t-17.5 43.5zM50 0v700h233q85 0 153.5 -26.5t116.5 -73t74 -110.5t26 -140t-26 -140t-74 -110.5t-116.5 -73t-153.5 -26.5h-233zM404 350q0 49 -20.5 82t-50.5 33
q-8 0 -13.5 -4t-9.5 -9v-205q9 -12 23 -12q30 0 50.5 33t20.5 82z" />
    <glyph glyph-name="uni1E1E" unicode="&#x1e1e;" horiz-adv-x="523" 
d="M210 819q0 26 17.5 43.5t43.5 17.5t43.5 -17.5t17.5 -43.5t-17.5 -43.5t-43.5 -17.5t-43.5 17.5t-17.5 43.5zM50 0v700h446v-235h-59v-230l-127 80v-315h-260zM437 465h-127v-81z" />
    <glyph glyph-name="uni1E1F" unicode="&#x1e1f;" horiz-adv-x="523" 
d="M210 819q0 26 17.5 43.5t43.5 17.5t43.5 -17.5t17.5 -43.5t-17.5 -43.5t-43.5 -17.5t-43.5 17.5t-17.5 43.5zM50 0v700h446v-235h-59v-230l-127 80v-315h-260zM437 465h-127v-81z" />
    <glyph glyph-name="uni1E40" unicode="&#x1e40;" horiz-adv-x="771" 
d="M324 819q0 26 17.5 43.5t43.5 17.5t43.5 -17.5t17.5 -43.5t-17.5 -43.5t-43.5 -17.5t-43.5 17.5t-17.5 43.5zM721 722v-722h-260v326l-76 -42l-75 42v-326h-260v722l335 -175z" />
    <glyph glyph-name="uni1E41" unicode="&#x1e41;" horiz-adv-x="771" 
d="M324 819q0 26 17.5 43.5t43.5 17.5t43.5 -17.5t17.5 -43.5t-17.5 -43.5t-43.5 -17.5t-43.5 17.5t-17.5 43.5zM721 722v-722h-260v326l-76 -42l-75 42v-326h-260v722l335 -175z" />
    <glyph glyph-name="uni1E56" unicode="&#x1e56;" horiz-adv-x="654" 
d="M254 819q0 26 17.5 43.5t43.5 17.5t43.5 -17.5t17.5 -43.5t-17.5 -43.5t-43.5 -17.5t-43.5 17.5t-17.5 43.5zM50 0v700h213q75 0 142.5 -12.5t118 -45t80.5 -89.5t30 -146q0 -48 -17.5 -97t-56.5 -89t-100.5 -65.5t-149.5 -28.5v-127h-260zM328 482q-8 0 -12 -3t-6 -5
v-105q5 -6 11.5 -7.5t14.5 -1.5q20 0 34 19t14 42q0 24 -16.5 42.5t-39.5 18.5z" />
    <glyph glyph-name="uni1E57" unicode="&#x1e57;" horiz-adv-x="654" 
d="M254 819q0 26 17.5 43.5t43.5 17.5t43.5 -17.5t17.5 -43.5t-17.5 -43.5t-43.5 -17.5t-43.5 17.5t-17.5 43.5zM50 0v700h213q75 0 142.5 -12.5t118 -45t80.5 -89.5t30 -146q0 -48 -17.5 -97t-56.5 -89t-100.5 -65.5t-149.5 -28.5v-127h-260zM328 482q-8 0 -12 -3t-6 -5
v-105q5 -6 11.5 -7.5t14.5 -1.5q20 0 34 19t14 42q0 24 -16.5 42.5t-39.5 18.5z" />
    <glyph glyph-name="uni1E60" unicode="&#x1e60;" horiz-adv-x="546" 
d="M305 819q0 26 17.5 43.5t43.5 17.5t43.5 -17.5t17.5 -43.5t-17.5 -43.5t-43.5 -17.5t-43.5 17.5t-17.5 43.5zM503 468q-36 0 -57 -20.5t-33.5 -54t-20.5 -76.5t-19 -87.5t-29 -87.5t-50 -76.5t-81.5 -54t-124.5 -20.5q-15 0 -37.5 2t-38.5 7v235q16 -3 30 -3
q36 0 57 20.5t33.5 54t20.5 76.5t19.5 87.5t29.5 87.5t50 76.5t81.5 54t124.5 20.5q14 0 37 -2t39 -7v-235q-17 3 -31 3z" />
    <glyph glyph-name="uni1E61" unicode="&#x1e61;" horiz-adv-x="546" 
d="M305 819q0 26 17.5 43.5t43.5 17.5t43.5 -17.5t17.5 -43.5t-17.5 -43.5t-43.5 -17.5t-43.5 17.5t-17.5 43.5zM503 468q-36 0 -57 -20.5t-33.5 -54t-20.5 -76.5t-19 -87.5t-29 -87.5t-50 -76.5t-81.5 -54t-124.5 -20.5q-15 0 -37.5 2t-38.5 7v235q16 -3 30 -3
q36 0 57 20.5t33.5 54t20.5 76.5t19.5 87.5t29.5 87.5t50 76.5t81.5 54t124.5 20.5q14 0 37 -2t39 -7v-235q-17 3 -31 3z" />
    <glyph glyph-name="uni1E6A" unicode="&#x1e6a;" horiz-adv-x="586" 
d="M232 819q0 26 17.5 43.5t43.5 17.5t43.5 -17.5t17.5 -43.5t-17.5 -43.5t-43.5 -17.5t-43.5 17.5t-17.5 43.5zM163 0v465h-139v235h538v-235h-139v-465h-260z" />
    <glyph glyph-name="uni1E6B" unicode="&#x1e6b;" horiz-adv-x="586" 
d="M232 819q0 26 17.5 43.5t43.5 17.5t43.5 -17.5t17.5 -43.5t-17.5 -43.5t-43.5 -17.5t-43.5 17.5t-17.5 43.5zM163 0v465h-139v235h538v-235h-139v-465h-260z" />
    <glyph glyph-name="Wgrave" unicode="&#x1e80;" horiz-adv-x="950" 
d="M494 888l41 -138h-82l-88 138h129zM475 700l96 -164l81 164h296l-342 -720l-131 307l-131 -307l-342 720h296l81 -164z" />
    <glyph glyph-name="wgrave" unicode="&#x1e81;" horiz-adv-x="950" 
d="M494 888l41 -138h-82l-88 138h129zM475 700l96 -164l81 164h296l-342 -720l-131 307l-131 -307l-342 720h296l81 -164z" />
    <glyph glyph-name="Wacute" unicode="&#x1e82;" horiz-adv-x="950" 
d="M585 888l-88 -138h-82l41 138h129zM475 700l96 -164l81 164h296l-342 -720l-131 307l-131 -307l-342 720h296l81 -164z" />
    <glyph glyph-name="wacute" unicode="&#x1e83;" horiz-adv-x="950" 
d="M585 888l-88 -138h-82l41 138h129zM475 700l96 -164l81 164h296l-342 -720l-131 307l-131 -307l-342 720h296l81 -164z" />
    <glyph glyph-name="Wdieresis" unicode="&#x1e84;" horiz-adv-x="950" 
d="M330 819q0 26 17.5 43.5t43.5 17.5t43.5 -17.5t17.5 -43.5t-17.5 -43.5t-43.5 -17.5t-43.5 17.5t-17.5 43.5zM497 819q0 26 17.5 43.5t43.5 17.5t43.5 -17.5t17.5 -43.5t-17.5 -43.5t-43.5 -17.5t-43.5 17.5t-17.5 43.5zM475 700l96 -164l81 164h296l-342 -720l-131 307
l-131 -307l-342 720h296l81 -164z" />
    <glyph glyph-name="wdieresis" unicode="&#x1e85;" horiz-adv-x="950" 
d="M330 819q0 26 17.5 43.5t43.5 17.5t43.5 -17.5t17.5 -43.5t-17.5 -43.5t-43.5 -17.5t-43.5 17.5t-17.5 43.5zM497 819q0 26 17.5 43.5t43.5 17.5t43.5 -17.5t17.5 -43.5t-17.5 -43.5t-43.5 -17.5t-43.5 17.5t-17.5 43.5zM475 700l96 -164l81 164h296l-342 -720l-131 307
l-131 -307l-342 720h296l81 -164z" />
    <glyph glyph-name="Ygrave" unicode="&#x1ef2;" horiz-adv-x="765" 
d="M401 888l41 -138h-82l-88 138h129zM252 0v239l-252 461h286l96 -190l97 190h286l-253 -463v-237h-260z" />
    <glyph glyph-name="ygrave" unicode="&#x1ef3;" horiz-adv-x="765" 
d="M401 888l41 -138h-82l-88 138h129zM252 0v239l-252 461h286l96 -190l97 190h286l-253 -463v-237h-260z" />
    <glyph glyph-name="endash" unicode="&#x2013;" horiz-adv-x="500" 
d="M50 463h400v-228h-400v228z" />
    <glyph glyph-name="emdash" unicode="&#x2014;" horiz-adv-x="1000" 
d="M50 463h900v-228h-900v228z" />
    <glyph glyph-name="quoteleft" unicode="&#x2018;" horiz-adv-x="326" 
d="M30 495q0 12 2 23t5 22l50 174h132l-23 -90q43 -11 71.5 -46.5t28.5 -82.5q0 -27 -10.5 -51.5t-28.5 -42.5t-42.5 -28.5t-51.5 -10.5t-51.5 10.5t-42.5 28.5t-28.5 42.5t-10.5 51.5z" />
    <glyph glyph-name="quoteright" unicode="&#x2019;" horiz-adv-x="326" 
d="M30 581q0 27 10.5 51.5t28.5 42.5t42.5 28.5t51.5 10.5t51.5 -10.5t42.5 -28.5t28.5 -42.5t10.5 -51.5q0 -12 -2 -23t-5 -22l-50 -174h-132l23 90q-43 11 -71.5 46.5t-28.5 82.5z" />
    <glyph glyph-name="quotesinglbase" unicode="&#x201a;" horiz-adv-x="326" 
d="M296 120q0 -12 -2 -23t-5 -22l-50 -174h-132l23 90q-43 11 -71.5 46.5t-28.5 82.5q0 27 10.5 51.5t28.5 42.5t42.5 28.5t51.5 10.5t51.5 -10.5t42.5 -28.5t28.5 -42.5t10.5 -51.5z" />
    <glyph glyph-name="quotedblleft" unicode="&#x201c;" horiz-adv-x="637" 
d="M341 495q0 12 2 23t5 22l50 174h132l-23 -90q43 -11 71.5 -46.5t28.5 -82.5q0 -27 -10.5 -51.5t-28.5 -42.5t-42.5 -28.5t-51.5 -10.5t-51.5 10.5t-42.5 28.5t-28.5 42.5t-10.5 51.5zM30 495q0 12 2 23t5 22l50 174h132l-23 -90q43 -11 71.5 -46.5t28.5 -82.5
q0 -27 -10.5 -51.5t-28.5 -42.5t-42.5 -28.5t-51.5 -10.5t-51.5 10.5t-42.5 28.5t-28.5 42.5t-10.5 51.5z" />
    <glyph glyph-name="quotedblright" unicode="&#x201d;" horiz-adv-x="637" 
d="M296 581q0 -12 -2 -23t-5 -22l-50 -174h-132l23 90q-43 11 -71.5 46.5t-28.5 82.5q0 27 10.5 51.5t28.5 42.5t42.5 28.5t51.5 10.5t51.5 -10.5t42.5 -28.5t28.5 -42.5t10.5 -51.5zM607 581q0 -12 -2 -23t-5 -22l-50 -174h-132l23 90q-43 11 -71.5 46.5t-28.5 82.5
q0 27 10.5 51.5t28.5 42.5t42.5 28.5t51.5 10.5t51.5 -10.5t42.5 -28.5t28.5 -42.5t10.5 -51.5z" />
    <glyph glyph-name="quotedblbase" unicode="&#x201e;" horiz-adv-x="637" 
d="M296 120q0 -12 -2 -23t-5 -22l-50 -174h-132l23 90q-43 11 -71.5 46.5t-28.5 82.5q0 27 10.5 51.5t28.5 42.5t42.5 28.5t51.5 10.5t51.5 -10.5t42.5 -28.5t28.5 -42.5t10.5 -51.5zM607 120q0 -12 -2 -23t-5 -22l-50 -174h-132l23 90q-43 11 -71.5 46.5t-28.5 82.5
q0 27 10.5 51.5t28.5 42.5t42.5 28.5t51.5 10.5t51.5 -10.5t42.5 -28.5t28.5 -42.5t10.5 -51.5z" />
    <glyph glyph-name="dagger" unicode="&#x2020;" horiz-adv-x="500" 
d="M178 538v162h144v-162l140 42v-183l-140 41v-512h-144v512l-140 -41v183z" />
    <glyph glyph-name="daggerdbl" unicode="&#x2021;" horiz-adv-x="500" 
d="M178 538v162h144v-162l140 42v-183l-140 41v-158l140 42v-183l-140 41v-254h-144v254l-140 -41v183l140 -42v158l-140 -41v183z" />
    <glyph glyph-name="bullet" unicode="&#x2022;" horiz-adv-x="500" 
d="M45 350q0 42 16 79.5t44 65.5t65.5 44t79.5 16t79.5 -16t65.5 -44t44 -65.5t16 -79.5t-16 -79.5t-44 -65.5t-65.5 -44t-79.5 -16t-79.5 16t-65.5 44t-44 65.5t-16 79.5z" />
    <glyph glyph-name="ellipsis" unicode="&#x2026;" horiz-adv-x="948" 
d="M296 120q0 -27 -10.5 -51.5t-28.5 -42.5t-42.5 -28.5t-51.5 -10.5t-51.5 10.5t-42.5 28.5t-28.5 42.5t-10.5 51.5t10.5 51.5t28.5 42.5t42.5 28.5t51.5 10.5t51.5 -10.5t42.5 -28.5t28.5 -42.5t10.5 -51.5zM607 120q0 -27 -10.5 -51.5t-28.5 -42.5t-42.5 -28.5
t-51.5 -10.5t-51.5 10.5t-42.5 28.5t-28.5 42.5t-10.5 51.5t10.5 51.5t28.5 42.5t42.5 28.5t51.5 10.5t51.5 -10.5t42.5 -28.5t28.5 -42.5t10.5 -51.5zM918 120q0 -27 -10.5 -51.5t-28.5 -42.5t-42.5 -28.5t-51.5 -10.5t-51.5 10.5t-42.5 28.5t-28.5 42.5t-10.5 51.5
t10.5 51.5t28.5 42.5t42.5 28.5t51.5 10.5t51.5 -10.5t42.5 -28.5t28.5 -42.5t10.5 -51.5z" />
    <glyph glyph-name="perthousand" unicode="&#x2030;" horiz-adv-x="1463" 
d="M326 0l204 700h157l-204 -700h-157zM227 570q-29 0 -41.5 -22t-12.5 -52t12.5 -52t41.5 -22t42 22t13 52t-13 52t-42 22zM227 278q-46 0 -83 15t-63.5 43.5t-41 69t-14.5 90.5q0 46 14.5 86t41 69.5t63.5 46t83 16.5t83 -16.5t63.5 -46t41 -69.5t14.5 -86
q0 -50 -14.5 -90.5t-41 -69t-63.5 -43.5t-83 -15zM786 278q-29 0 -41.5 -22t-12.5 -52t12.5 -52t41.5 -22t42 22t13 52t-13 52t-42 22zM786 -14q-46 0 -83 15t-63.5 43.5t-41 69t-14.5 90.5q0 46 14.5 86t41 69.5t63.5 46t83 16.5t83 -16.5t63.5 -46t41 -69.5t14.5 -86
q0 -50 -14.5 -90.5t-41 -69t-63.5 -43.5t-83 -15zM1236 278q-29 0 -41.5 -22t-12.5 -52t12.5 -52t41.5 -22t42 22t13 52t-13 52t-42 22zM1236 -14q-46 0 -83 15t-63.5 43.5t-41 69t-14.5 90.5q0 46 14.5 86t41 69.5t63.5 46t83 16.5t83 -16.5t63.5 -46t41 -69.5t14.5 -86
q0 -50 -14.5 -90.5t-41 -69t-63.5 -43.5t-83 -15z" />
    <glyph glyph-name="guilsinglleft" unicode="&#x2039;" horiz-adv-x="447" 
d="M432 0h-228l-189 350l189 350h228l-165 -350z" />
    <glyph glyph-name="guilsinglright" unicode="&#x203a;" horiz-adv-x="447" 
d="M180 350l-165 350h228l189 -350l-189 -350h-228z" />
    <glyph glyph-name="fraction" unicode="&#x2044;" horiz-adv-x="451" 
d="M45 0l204 700h157l-204 -700h-157z" />
    <glyph glyph-name="Euro" unicode="&#x20ac;" horiz-adv-x="599" 
d="M10 412h63q11 63 42.5 116.5t78 93.5t105.5 62.5t125 22.5q14 0 32 -1.5t35.5 -4t32.5 -7t23 -10.5l-5 -233q-26 8 -53.5 12.5t-56.5 2.5q-30 -2 -55.5 -16.5t-40.5 -37.5h182l-3 -39h-196q-4 -23 0 -46h192l-3 -39h-172q15 -23 40.5 -37.5t55.5 -16.5q29 -2 56.5 2.5
t53.5 12.5l5 -233q-8 -6 -23 -10.5t-32.5 -7t-35.5 -4t-32 -1.5q-66 0 -125 22.5t-105.5 62t-78 93.5t-42.5 117h-73l3 39h66q-3 11 -2.5 23t2.5 23h-62z" />
    <glyph glyph-name="trademark" unicode="&#x2122;" horiz-adv-x="859" 
d="M809 713v-433h-156v178l-45 -26l-45 26v-178h-156v433l201 -123zM24 700h323v-141h-84v-279h-156v279h-83v141z" />
    <glyph glyph-name="minus" unicode="&#x2212;" horiz-adv-x="660" 
d="M70 453h520v-208h-520v208z" />
    </font>
</defs>
</svg>
